<?xml version="1.0" standalone="no"?>
<!DOCTYPE svg PUBLIC "-//W3C//DTD SVG 20010904//EN"
 "http://www.w3.org/TR/2001/REC-SVG-20010904/DTD/svg10.dtd">
<svg version="1.0" xmlns="http://www.w3.org/2000/svg"
 width="426.000000pt" height="426.000000pt" viewBox="0 0 426.000000 426.000000"
 preserveAspectRatio="xMidYMid meet">
<metadata>
Created by potrace 1.14, written by Peter Selinger 2001-2017
</metadata>
<g transform="translate(0.000000,426.000000) scale(0.100000,-0.100000)"
fill="#000000" stroke="none">
<path d="M0 2130 l0 -2130 2130 0 2130 0 0 2130 0 2130 -2130 0 -2130 0 0
-2130z m2425 1630 c3 -5 1 -10 -5 -10 -6 0 6 -16 26 -36 21 -22 39 -32 43 -26
7 11 61 4 61 -8 0 -4 -9 -10 -21 -13 -32 -9 -22 -51 14 -55 15 -2 27 -9 27
-18 0 -8 6 -14 14 -14 7 0 19 -7 27 -16 11 -14 14 -13 25 8 9 17 9 25 1 31 -8
6 -7 7 3 4 8 -2 14 -11 12 -21 -2 -10 4 -16 16 -16 10 0 24 -11 30 -24 13 -28
45 -29 66 -1 15 20 15 20 16 -2 0 -20 29 -31 133 -47 10 -1 22 -8 27 -16 6
-10 14 -9 35 9 46 35 76 23 35 -14 -19 -17 -33 -68 -34 -125 -1 -18 4 -25 17
-23 12 1 22 -9 29 -28 5 -16 16 -29 23 -29 7 0 21 -3 29 -6 12 -5 15 -2 10 10
-4 10 -1 16 8 16 7 0 14 -9 15 -20 1 -11 -2 -20 -7 -20 -5 0 -4 -11 2 -25 14
-31 41 -32 60 -3 l15 22 27 -29 c15 -16 25 -34 22 -41 -3 -7 4 -20 14 -29 22
-20 16 -52 -12 -61 -18 -5 -17 -8 13 -35 18 -16 36 -29 40 -29 4 0 9 -9 12
-20 4 -16 14 -20 45 -20 23 0 44 5 47 10 4 6 12 4 22 -6 14 -13 14 -17 2 -25
-11 -8 -10 -13 8 -28 15 -12 20 -25 16 -40 -6 -23 7 -27 38 -11 20 11 28 -3 9
-15 -5 -3 -10 -15 -10 -26 0 -16 5 -18 25 -13 19 5 25 2 25 -10 0 -9 7 -16 15
-16 8 0 15 -4 15 -9 0 -5 3 -16 6 -25 4 -10 1 -16 -9 -16 -8 0 -17 -6 -20 -12
-3 -10 -10 -10 -31 1 -38 21 -55 2 -27 -30 12 -13 32 -36 45 -51 13 -15 20
-31 16 -38 -4 -7 -5 -21 -3 -31 5 -18 34 -25 86 -20 9 1 20 -6 24 -16 4 -10
11 -21 17 -25 7 -5 4 -8 -6 -8 -10 0 -18 -6 -18 -14 0 -8 8 -13 18 -12 12 1
17 -6 16 -21 0 -19 2 -21 15 -11 9 7 24 21 34 33 l19 20 -5 -23 c-4 -17 -2
-21 7 -13 7 6 17 6 26 1 16 -10 58 -3 78 13 16 13 28 1 37 -35 5 -20 2 -29
-13 -37 -28 -15 -38 -60 -16 -76 16 -12 16 -13 -4 -24 -11 -6 -28 -11 -38 -11
-13 0 -14 3 -4 15 15 18 4 56 -15 49 -18 -7 -53 -75 -48 -91 3 -7 -2 -13 -11
-13 -9 0 -16 -7 -16 -16 0 -8 4 -13 9 -9 5 3 12 1 15 -4 4 -6 -9 -9 -29 -8
-26 2 -35 6 -35 20 0 10 -12 22 -27 28 -15 6 -31 16 -35 22 -5 8 -8 7 -8 -5 0
-9 5 -20 11 -23 6 -4 8 -13 6 -19 -4 -9 3 -11 19 -8 18 3 24 0 24 -13 0 -14
-6 -17 -34 -12 -25 4 -36 1 -40 -10 -11 -29 -6 -55 16 -72 l21 -18 -26 -7
c-32 -8 -35 -26 -7 -33 12 -3 20 -13 19 -22 -2 -28 1 -36 10 -23 7 11 9 11 14
-2 5 -12 0 -16 -24 -16 -17 0 -29 -3 -27 -7 2 -5 14 -29 26 -55 13 -27 28 -48
35 -48 12 0 34 -53 42 -102 2 -17 -1 -28 -11 -32 -10 -4 -14 3 -14 24 0 17 -2
30 -4 30 -2 0 -11 3 -20 6 -12 5 -16 0 -16 -17 0 -13 -7 -37 -15 -52 -10 -21
-12 -34 -5 -47 6 -10 10 -23 10 -28 0 -14 -63 -22 -77 -10 -19 15 -32 -29 -24
-77 6 -36 8 -38 19 -20 6 11 12 16 12 10 0 -5 5 -3 11 5 9 13 10 13 8 0 -3
-29 1 -40 13 -38 7 2 14 -7 16 -19 3 -19 -1 -23 -22 -23 -29 0 -42 -16 -37
-47 3 -26 -6 -28 -33 -8 -27 20 -35 19 -29 -5 3 -11 0 -27 -7 -35 -7 -8 -10
-22 -6 -30 3 -10 -3 -17 -19 -21 -14 -3 -25 -12 -25 -19 0 -7 -15 -19 -32 -26
-40 -16 -78 -48 -78 -65 0 -6 -6 -17 -14 -23 -20 -17 -15 -77 7 -73 9 2 17 0
17 -3 0 -14 -53 -75 -65 -75 -7 0 -15 -7 -19 -15 -3 -8 -14 -15 -24 -15 -11 0
-26 -10 -34 -22 -11 -17 -25 -21 -72 -22 -53 -2 -61 -5 -97 -41 -45 -44 -55
-69 -41 -99 26 -56 31 -76 22 -81 -6 -4 -10 -2 -10 4 0 6 -6 8 -14 5 -8 -3
-17 -1 -20 4 -6 10 -63 1 -86 -13 -7 -4 -15 -2 -19 4 -4 6 -25 15 -46 18 -25
4 -36 3 -32 -4 4 -6 -1 -14 -10 -17 -15 -6 -15 -8 0 -23 13 -13 19 -14 31 -3
11 8 16 9 16 1 0 -6 -12 -14 -26 -17 -15 -4 -23 -12 -20 -20 3 -9 -5 -14 -27
-16 -18 -2 -32 -7 -32 -13 1 -15 -28 -46 -35 -37 -8 13 -40 22 -40 12 0 -6
-14 -10 -31 -10 -17 0 -28 4 -24 10 5 9 -15 15 -37 11 -5 0 -8 3 -8 9 0 11
-43 14 -53 3 -4 -3 1 -12 11 -19 16 -12 15 -15 -12 -43 -32 -33 -52 -41 -42
-16 9 25 -3 17 -18 -13 -14 -27 -13 -28 14 -40 39 -18 70 -46 70 -66 0 -18 -8
-20 -30 -6 -9 5 -19 5 -26 -1 -8 -7 -11 -4 -10 8 1 21 -31 26 -53 9 -12 -9
-12 -7 -3 11 9 16 9 23 -1 27 -9 5 -9 7 1 12 24 11 0 25 -34 18 -23 -4 -34 -2
-34 5 0 7 -4 9 -10 6 -7 -4 -7 3 0 20 15 40 13 45 -18 34 -21 -7 -28 -16 -27
-37 0 -17 -5 -27 -15 -27 -11 0 -14 9 -13 33 1 18 -3 30 -8 27 -5 -3 -6 1 -3
9 3 9 1 16 -5 16 -7 0 -9 -19 -7 -53 2 -28 5 -52 6 -52 2 0 3 -11 5 -25 1 -14
5 -44 9 -67 5 -29 4 -43 -3 -43 -6 0 -11 6 -11 14 0 8 -7 22 -15 30 -12 12
-13 20 -5 35 21 39 -36 116 -82 110 -38 -5 -98 35 -98 66 0 35 -28 44 -51 16
-10 -12 -24 -20 -31 -19 -8 2 -12 -5 -11 -19 2 -13 -2 -23 -7 -23 -6 0 -10 -5
-10 -11 0 -7 -10 -20 -22 -31 l-23 -20 -5 49 -5 49 -37 0 c-37 0 -51 -10 -26
-18 6 -2 9 -12 5 -21 -6 -16 -8 -16 -27 3 -11 11 -26 17 -35 14 -17 -7 -17 16
-1 28 5 3 -15 6 -45 5 -30 -1 -57 -5 -60 -10 -4 -5 -18 -1 -33 8 -21 14 -27
15 -31 3 -3 -7 -16 -15 -29 -16 -18 -1 -26 6 -37 34 -13 33 -15 34 -26 15 -10
-16 -10 -23 4 -36 11 -12 13 -19 5 -27 -16 -16 -24 -5 -31 38 l-6 35 -34 -30
c-40 -36 -64 -42 -34 -9 22 25 53 81 53 97 0 6 -7 8 -16 4 -12 -4 -14 0 -9 20
4 15 2 28 -6 33 -9 5 -11 2 -6 -9 8 -21 -5 -29 -20 -12 -10 10 -9 16 1 24 8 7
12 21 9 31 -7 27 -60 70 -77 64 -15 -6 -57 12 -68 29 -6 10 -47 12 -97 5 -21
-3 -24 1 -25 29 0 17 2 29 7 26 4 -2 7 3 7 12 0 11 -5 15 -15 11 -17 -6 -21
19 -4 30 6 3 7 9 3 13 -5 3 -23 32 -39 64 -36 71 -50 84 -69 68 -16 -14 -32 2
-20 21 14 22 10 77 -7 81 -23 6 -79 -4 -79 -14 0 -5 -11 -7 -25 -3 -16 4 -25
2 -25 -6 0 -6 -5 -8 -11 -5 -7 5 -5 15 6 31 8 13 14 24 13 25 -2 0 -13 2 -26
3 -20 2 -22 -1 -18 -19 5 -18 1 -24 -20 -28 -23 -4 -25 -2 -21 21 3 18 -2 31
-22 48 l-26 23 24 1 c20 0 22 4 17 25 -4 14 -2 25 4 25 17 0 50 39 50 58 0 10
-6 24 -12 30 -10 10 -10 15 -1 20 8 5 9 13 3 22 -6 8 -10 25 -10 36 0 12 -7
27 -15 34 -8 7 -12 16 -9 21 3 5 -6 14 -19 20 -14 7 -27 23 -30 38 -6 27 11
91 27 102 12 9 -3 49 -19 49 -9 0 -12 -7 -9 -17 5 -17 5 -17 -6 0 -6 9 -15 15
-21 12 -5 -4 -9 1 -9 10 0 12 -6 14 -28 9 -15 -4 -30 -12 -34 -18 -5 -8 -11
-7 -20 2 -8 8 -8 12 -1 12 15 0 22 34 12 53 -7 11 -4 19 8 26 10 6 14 11 10
11 -4 0 5 11 20 25 15 13 23 25 16 25 -6 0 -19 -7 -27 -16 -9 -8 -20 -13 -24
-10 -5 3 -16 -4 -25 -15 -11 -12 -12 -19 -5 -19 9 0 9 -3 1 -11 -29 -29 -46
39 -20 75 12 17 15 17 29 2 23 -23 32 -20 45 14 6 17 7 28 2 24 -5 -3 -9 4 -9
15 0 12 -7 21 -15 21 -8 0 -15 6 -16 13 0 6 -5 1 -11 -13 -11 -25 -11 -25 -15
-2 -6 30 54 93 68 71 7 -12 9 -12 9 1 1 12 3 11 11 -2 15 -27 24 -22 35 22 9
31 8 40 -3 44 -8 3 -11 11 -8 16 11 19 -3 44 -18 32 -10 -8 -13 -6 -14 9 -1
15 3 19 14 15 11 -5 14 -2 9 10 -4 10 0 18 12 21 12 3 17 13 16 31 -2 41 -3
42 -19 42 -8 0 -15 5 -15 11 0 5 -5 7 -11 3 -8 -5 -8 -8 0 -14 8 -4 9 -15 3
-31 l-9 -24 -7 23 c-6 19 -26 32 -26 16 0 -11 23 -49 34 -56 8 -5 7 -8 -1 -8
-19 0 -114 88 -102 96 6 3 8 13 5 21 -5 11 -2 13 10 9 10 -4 23 3 36 19 15 20
23 23 33 15 10 -8 24 -6 55 10 22 11 45 18 51 15 5 -4 17 -1 25 6 14 11 11 15
-23 24 -27 8 -38 16 -38 30 0 16 6 20 33 17 31 -2 32 -1 33 35 1 21 0 52 0 68
-2 40 7 51 49 62 37 10 51 36 25 47 -21 8 -72 -31 -81 -61 -7 -25 -19 -29 -30
-11 -4 6 0 16 9 23 10 7 17 20 17 29 0 9 8 16 20 16 24 0 25 8 3 32 -11 12
-13 22 -7 26 6 4 13 15 17 25 3 9 13 17 22 17 8 0 15 6 15 14 0 7 9 25 20 39
11 14 20 35 20 47 0 12 7 28 15 36 9 9 15 11 15 4 0 -6 5 -8 10 -5 15 9 12 35
-4 35 -7 0 -16 9 -19 20 -5 20 5 32 36 43 9 4 17 13 17 21 0 8 4 17 8 20 4 3
7 -9 6 -25 -2 -23 1 -29 13 -25 8 3 21 6 29 6 8 0 14 7 14 15 0 8 4 15 9 15 4
0 20 12 34 26 l26 26 35 -27 c19 -15 43 -28 53 -29 18 -3 57 40 68 73 3 9 15
21 27 26 23 10 26 23 14 71 -5 17 -3 23 4 19 5 -3 10 0 10 7 0 20 38 50 43 35
2 -7 10 0 17 15 11 22 11 30 0 43 -11 13 -10 19 5 35 17 19 12 45 -9 37 -7 -3
-12 9 -13 29 -2 27 1 34 15 34 16 1 16 1 0 14 -10 7 -15 16 -11 19 12 13 22 7
35 -20 10 -21 21 -28 42 -28 16 0 31 -6 33 -12 3 -7 0 -13 -6 -13 -6 0 -11 -7
-11 -15 0 -20 10 -19 26 3 10 13 17 15 31 6 10 -6 19 -16 19 -23 3 -23 4 -25
16 -13 14 14 28 16 28 3 0 -5 -9 -13 -21 -16 -11 -4 -18 -9 -15 -12 8 -8 66
-10 66 -1 0 9 31 27 57 31 10 2 31 9 46 15 16 7 37 12 47 12 26 0 31 12 17 41
-17 32 -11 56 16 63 30 8 47 -17 43 -63 -3 -44 15 -68 37 -47 14 14 67 17 67
4 0 -5 6 -8 14 -8 9 0 12 7 9 20 -3 11 0 20 6 20 6 0 11 -6 12 -12 0 -7 4 -2
10 10 10 27 3 46 -13 36 -8 -5 -9 -1 -5 10 4 10 7 22 7 27 0 5 9 9 21 9 26 0
54 26 38 36 -7 4 1 12 21 21 41 17 94 -1 87 -29 -3 -10 3 -18 15 -21 17 -5 19
-11 13 -38 -9 -39 7 -32 25 11 7 17 18 29 25 26 6 -2 18 -1 25 4 9 5 3 10 -19
15 -28 6 -29 8 -15 22 13 13 22 14 53 4 49 -14 49 -14 54 7 3 13 8 10 23 -16
10 -17 28 -35 38 -38 19 -6 19 -7 1 -20 -10 -8 -14 -14 -7 -14 6 0 14 -16 18
-35 6 -36 30 -48 40 -21 3 8 12 12 19 10 19 -8 27 12 12 28 -8 7 -14 28 -14
45 0 18 -7 41 -16 51 -22 24 -21 32 1 33 10 0 12 3 5 6 -7 2 -13 9 -13 14 0
12 37 12 45 -1z m-505 -51 c0 -6 -4 -7 -10 -4 -5 3 -10 11 -10 16 0 6 5 7 10
4 6 -3 10 -11 10 -16z m-29 -19 c14 0 -29 -40 -55 -49 -20 -8 -22 -7 -18 19 4
26 32 52 32 30 0 -6 5 -10 11 -10 6 0 9 6 6 14 -3 8 -3 17 1 21 4 4 8 0 10 -9
2 -9 8 -16 13 -16z m-809 -362 c-13 -13 -32 -2 -32 18 0 12 4 13 21 3 14 -7
18 -14 11 -21z m2058 -28 c0 -5 -5 -10 -11 -10 -5 0 -7 5 -4 10 3 6 8 10 11
10 2 0 4 -4 4 -10z m190 -186 c0 -8 -4 -12 -10 -9 -5 3 -10 10 -10 16 0 5 5 9
10 9 6 0 10 -7 10 -16z m-2595 -155 c11 -17 0 -20 -21 -4 -17 13 -17 14 -2 15
9 0 20 -5 23 -11z m2786 -56 c-12 -20 -14 -14 -5 12 4 9 9 14 11 11 3 -2 0
-13 -6 -23z m63 -87 c-3 -8 0 -25 6 -38 l12 -23 -20 22 c-17 17 -20 29 -15 59
5 33 7 35 14 16 5 -12 6 -28 3 -36z m48 -109 c2 -12 -1 -35 -7 -50 -10 -25
-13 -26 -24 -13 -11 13 -10 18 3 32 10 9 14 24 11 35 -4 10 -2 19 3 19 5 0 12
-10 14 -23z m46 -712 c-4 -11 -28 -16 -28 -6 0 12 13 22 23 18 5 -1 7 -7 5
-12z m-3192 -41 c-15 -14 -36 -12 -36 4 0 11 44 28 48 20 2 -4 -3 -15 -12 -24z
m108 -109 c-5 -13 -33 -29 -40 -22 -2 2 4 13 13 24 19 23 36 22 27 -2z m36
-17 c0 -16 -3 -19 -11 -11 -6 6 -8 16 -5 22 11 17 16 13 16 -11z m3005 -238
c8 -25 7 -25 -13 -7 -11 11 -18 26 -15 34 7 17 18 7 28 -27z m25 -100 c0 -5
-4 -10 -10 -10 -5 0 -10 5 -10 10 0 6 5 10 10 10 6 0 10 -4 10 -10z m-2985
-30 c-3 -5 -15 -10 -26 -10 -11 0 -17 5 -14 10 3 6 15 10 26 10 11 0 17 -4 14
-10z m3015 -10 c0 -5 -9 -10 -21 -10 -11 0 -17 5 -14 10 3 6 13 10 21 10 8 0
14 -4 14 -10z m-135 -60 c3 -5 1 -10 -4 -10 -6 0 -11 5 -11 10 0 6 2 10 4 10
3 0 8 -4 11 -10z m-25 -120 c0 -11 -7 -20 -15 -20 -8 0 -15 9 -15 20 0 11 7
20 15 20 8 0 15 -9 15 -20z m-160 -66 c0 -8 5 -14 12 -14 9 0 9 -3 1 -11 -16
-16 -33 -2 -33 27 0 14 4 22 10 19 6 -3 10 -13 10 -21z m-2300 -230 c0 -12
-18 -30 -24 -23 -2 2 -7 14 -10 26 -6 18 -4 20 14 16 11 -3 20 -11 20 -19z
m-50 -15 c0 -10 6 -19 13 -19 11 -1 57 -34 57 -42 0 -1 -16 -3 -35 -3 -25 0
-42 8 -60 27 -28 30 -30 39 -14 55 16 16 39 5 39 -18z m330 -163 c0 -3 -4 -8
-10 -11 -5 -3 -10 -1 -10 4 0 6 5 11 10 11 6 0 10 -2 10 -4z m1470 -35 c0 -22
-19 -41 -42 -41 -24 0 -23 16 2 23 12 3 20 14 20 27 0 11 5 18 10 15 6 -3 10
-14 10 -24z m100 -1 c0 -5 7 -10 15 -10 8 0 15 -5 15 -10 0 -17 -31 -24 -51
-12 -23 15 -49 15 -49 2 0 -5 -7 -10 -15 -10 -14 0 -14 2 0 23 15 24 85 38 85
17z m-130 -66 c0 -8 -4 -12 -10 -9 -5 3 -10 10 -10 16 0 5 5 9 10 9 6 0 10 -7
10 -16z m-1460 -53 c0 -6 -4 -13 -10 -16 -5 -3 -10 1 -10 9 0 9 5 16 10 16 6
0 10 -4 10 -9z m1205 -41 c11 -17 -5 -49 -21 -43 -11 4 -12 9 -3 19 6 7 8 18
4 24 -3 5 -2 10 4 10 5 0 13 -5 16 -10z m-268 -83 c-6 -20 -27 -19 -27 2 0 14
5 19 15 14 9 -3 14 -10 12 -16z"/>
<path d="M1970 3639 c0 -4 11 -6 25 -6 14 0 25 3 25 8 0 5 -11 8 -25 7 -14 -1
-25 -5 -25 -9z"/>
<path d="M2157 3614 c-3 -3 -2 -14 0 -25 6 -20 33 -23 40 -4 3 11 -32 37 -40
29z"/>
<path d="M2000 3575 c0 -8 6 -15 14 -15 22 0 28 17 10 24 -22 9 -24 8 -24 -9z"/>
<path d="M2550 3562 c0 -12 19 -26 26 -19 2 2 -2 10 -11 17 -9 8 -15 8 -15 2z"/>
<path d="M2800 3445 c7 -8 17 -15 22 -15 6 0 5 7 -2 15 -7 8 -17 15 -22 15 -6
0 -5 -7 2 -15z"/>
<path d="M2210 3390 c-9 -6 -10 -10 -3 -10 6 0 15 5 18 10 8 12 4 12 -15 0z"/>
<path d="M2210 3367 c-15 -8 -24 -21 -23 -32 1 -11 -3 -22 -8 -26 -5 -3 -12
-29 -16 -57 -3 -29 -10 -52 -14 -52 -5 0 -6 6 -4 13 7 19 -31 58 -49 51 -12
-5 -15 -2 -10 9 8 21 -3 37 -21 30 -16 -5 -21 -43 -7 -43 5 0 9 -19 9 -42 1
-24 3 -52 6 -63 3 -11 6 -35 6 -53 1 -26 7 -35 29 -43 16 -7 22 -13 14 -16
-10 -4 -10 -8 -1 -19 16 -19 36 -18 48 4 9 15 10 15 11 -5 0 -18 6 -23 25 -23
16 0 25 6 25 15 0 17 36 20 46 4 4 -7 0 -16 -9 -21 -19 -10 -13 -34 15 -61 20
-20 16 -37 -9 -37 -10 0 -13 6 -9 16 5 14 4 15 -8 5 -20 -17 -29 -63 -17 -93
7 -19 6 -29 -7 -41 -14 -15 -14 -17 2 -23 11 -4 21 -1 26 7 6 9 8 2 8 -19 -1
-25 -6 -34 -25 -38 -13 -4 -29 -1 -37 5 -7 6 -28 10 -45 9 -29 -2 -31 -5 -26
-30 5 -21 3 -28 -9 -28 -15 0 -17 -8 -20 -64 -1 -10 -14 -28 -29 -40 -19 -15
-26 -28 -21 -39 3 -9 10 -17 15 -17 5 0 9 -7 9 -15 0 -8 4 -15 9 -15 18 0 21
-37 8 -70 -10 -21 -17 -28 -22 -20 -4 6 -15 10 -25 7 -18 -5 -39 21 -45 55 -3
14 5 23 28 33 27 12 24 21 -5 16 -5 0 -8 4 -8 10 0 7 -11 9 -32 5 -56 -11 -63
-11 -68 -1 -3 6 17 11 48 13 29 2 50 7 47 11 -2 5 11 21 30 35 42 32 46 55 10
48 -15 -2 -25 0 -25 7 0 6 -9 11 -20 11 -11 0 -20 3 -20 8 0 4 -13 13 -30 20
-16 8 -30 20 -30 27 0 15 -62 27 -71 13 -11 -17 -17 5 -16 60 1 40 -3 55 -18
66 -20 15 -51 11 -76 -10 -9 -8 -18 -11 -21 -8 -8 7 -61 13 -70 7 -8 -4 7 -36
31 -65 12 -16 12 -18 -2 -18 -8 0 -17 -6 -20 -12 -3 -10 -9 -10 -25 -1 -18 11
-24 10 -42 -9 -23 -25 -25 -35 -9 -40 8 -3 6 -16 -5 -42 -8 -20 -20 -35 -25
-31 -11 6 -41 -45 -41 -69 0 -10 -6 -13 -15 -10 -8 4 -15 1 -15 -5 0 -6 -12
-11 -27 -11 -25 1 -26 2 -10 14 9 7 17 18 17 25 0 6 5 11 10 11 6 0 10 7 10
16 0 10 -6 14 -15 10 -22 -8 -18 1 10 30 28 28 24 55 -4 30 -15 -14 -17 -13
-18 6 -1 12 3 28 9 35 7 9 7 13 -1 13 -17 0 -48 -53 -33 -58 7 -2 10 -8 6 -13
-3 -5 -12 -3 -20 6 -13 13 -12 19 6 55 11 22 25 38 30 35 11 -7 29 26 23 43
-3 6 -11 12 -18 12 -20 0 -26 27 -9 41 20 16 15 102 -5 94 -11 -4 -11 -2 -2 9
8 9 14 76 6 76 0 0 -15 -4 -33 -9 -36 -11 -42 1 -15 31 14 15 14 22 4 42 -22
40 -81 15 -81 -34 0 -15 -8 -38 -19 -51 -10 -13 -16 -30 -14 -36 3 -7 0 -13
-6 -13 -6 0 -10 -3 -9 -7 3 -8 -17 -66 -33 -95 -13 -26 -12 -27 23 -17 46 13
56 11 33 -7 -19 -15 -19 -15 8 -9 26 7 27 6 17 -19 -8 -21 -7 -28 5 -33 12 -4
13 -9 4 -19 -8 -10 -8 -14 0 -14 17 0 13 -14 -9 -38 -21 -23 -47 -31 -34 -11
3 6 1 15 -6 19 -7 4 -9 13 -5 20 6 9 9 10 15 0 5 -9 9 -9 14 -1 4 6 0 14 -8
17 -21 8 -49 -3 -41 -17 4 -5 -1 -19 -10 -29 -12 -13 -15 -28 -11 -44 4 -18 0
-31 -15 -45 -12 -11 -26 -18 -31 -15 -4 3 -8 -1 -8 -9 0 -8 -7 -20 -16 -28
-13 -11 -14 -9 -8 17 4 16 10 34 14 39 9 12 23 105 17 105 -3 0 -18 -20 -34
-45 -15 -25 -32 -45 -36 -45 -5 0 -5 -4 -2 -10 3 -5 1 -18 -4 -28 -6 -10 -11
-38 -13 -62 -1 -33 -7 -45 -25 -53 -25 -11 -93 -118 -93 -147 0 -10 -7 -21
-15 -24 -9 -3 -23 -23 -31 -43 -14 -33 -18 -35 -28 -21 -7 9 -21 15 -32 13
-10 -2 -27 -4 -36 -4 -11 -1 -18 -9 -18 -21 0 -23 10 -26 28 -8 9 9 12 9 12 0
0 -7 -4 -12 -9 -12 -22 0 -36 -93 -16 -110 8 -7 15 -19 15 -27 0 -10 7 -14 20
-10 11 3 18 1 14 -4 -8 -13 13 -11 36 3 10 7 22 9 26 6 8 -8 -20 -38 -35 -38
-6 0 -11 -6 -12 -12 -1 -7 -3 -34 -5 -61 -3 -34 0 -49 10 -53 16 -6 10 -44 -8
-44 -6 0 2 -7 18 -15 36 -19 45 -12 21 16 -15 15 -16 22 -6 28 14 9 17 61 6
104 -6 21 -3 31 11 42 11 8 24 13 30 10 7 -2 21 5 32 16 12 10 28 19 36 19 8
0 17 10 19 23 l4 22 8 -23 c5 -17 13 -22 26 -19 11 3 19 1 19 -3 0 -5 3 -15 6
-24 4 -11 1 -16 -10 -16 -9 0 -16 -7 -16 -16 0 -11 5 -14 16 -10 19 7 57 -11
49 -25 -4 -5 0 -9 8 -9 8 0 18 7 21 16 8 21 8 26 -2 20 -5 -3 -9 8 -9 24 0 17
4 30 9 30 11 0 10 47 -1 54 -5 3 -7 15 -4 26 3 12 -1 22 -11 26 -18 7 -21 30
-6 39 6 4 17 1 25 -5 12 -10 15 -9 15 3 0 12 8 16 30 14 20 -1 29 -6 25 -15
-2 -7 2 -15 10 -18 16 -7 22 -94 6 -94 -13 0 -4 -72 11 -81 32 -21 54 9 28 39
-6 6 -8 10 -4 8 3 -2 21 2 39 10 44 18 59 18 51 -1 -3 -9 0 -15 8 -15 17 0 27
35 14 48 -14 14 0 52 18 52 14 0 13 -20 -2 -67 -2 -7 1 -13 6 -13 13 0 25 23
22 43 -2 9 1 17 6 17 19 0 20 39 1 56 -25 23 -24 44 2 44 18 0 19 2 9 15 -16
19 -1 19 24 0 11 -8 28 -15 38 -15 13 0 18 -8 18 -25 0 -29 11 -32 32 -7 41
46 23 116 -32 124 -14 2 -26 11 -28 22 -4 17 1 18 60 11 35 -4 68 -13 74 -21
6 -8 21 -14 33 -14 14 0 21 -5 18 -12 -2 -7 -11 -13 -19 -13 -25 0 -59 -37
-56 -59 2 -12 10 -21 18 -21 8 0 15 -7 15 -15 0 -11 11 -15 37 -15 20 0 40 -3
44 -7 4 -5 16 -8 26 -8 10 0 18 -4 18 -9 0 -5 13 -23 30 -39 17 -17 30 -35 30
-41 0 -6 11 -18 25 -27 14 -9 24 -24 23 -33 -2 -9 2 -15 9 -14 6 1 14 -4 17
-12 4 -11 -9 -19 -49 -31 -58 -16 -67 -32 -45 -75 17 -31 -8 -51 -41 -33 -13
7 -36 13 -51 14 -29 0 -46 -15 -26 -23 7 -3 9 -6 3 -6 -5 -1 -23 10 -39 24
-16 13 -33 22 -37 19 -13 -8 -11 -31 4 -38 6 -3 2 -3 -10 0 -17 4 -21 2 -18
-8 7 -19 -44 -74 -64 -70 -13 3 -13 1 -4 -9 16 -17 66 -22 57 -6 -4 7 -3 8 1
4 14 -13 14 -37 0 -37 -8 0 -11 -7 -8 -20 7 -28 -19 -26 -46 3 -49 52 -62 72
-58 89 6 22 -15 40 -36 32 -9 -3 -21 -3 -27 1 -18 11 9 35 41 35 16 0 29 4 29
10 0 15 -35 30 -69 30 -17 0 -31 5 -31 12 0 6 -10 3 -21 -8 -16 -14 -23 -15
-26 -7 -3 8 -14 11 -30 7 -16 -4 -28 -2 -33 6 -8 14 -42 1 -41 -16 0 -5 -12
-9 -27 -9 -17 -1 -26 -5 -24 -14 2 -11 -3 -10 -22 3 l-25 16 5 -42 c3 -24 12
-55 19 -70 17 -35 2 -46 -21 -16 -12 17 -15 18 -10 5 3 -10 6 -22 6 -27 0 -4
11 -10 25 -12 13 -3 22 -2 20 3 -3 4 0 11 6 14 6 4 13 -2 16 -13 3 -11 11 -23
19 -26 16 -6 19 10 4 19 -20 12 -10 26 10 15 11 -6 20 -20 20 -30 0 -11 4 -20
10 -20 5 0 16 -15 24 -34 8 -19 24 -37 36 -41 15 -5 19 -12 15 -25 -3 -10 0
-22 6 -26 8 -5 9 -3 4 5 -5 9 -1 12 12 9 11 -2 20 1 21 6 0 5 6 12 13 17 10 6
5 11 -16 19 l-30 12 25 10 c18 7 33 5 55 -5 36 -18 85 -27 85 -16 0 4 -8 9
-17 11 -12 3 -3 9 22 16 37 11 41 10 61 -16 13 -15 18 -28 13 -30 -18 -7 -9
-23 10 -17 12 3 21 0 25 -10 8 -23 25 -18 32 10 3 14 13 25 21 25 9 0 13 -6 9
-15 -3 -9 0 -15 9 -15 8 0 15 -9 15 -19 0 -23 -16 -37 -22 -19 -6 18 -56 -16
-70 -48 -6 -13 -17 -24 -24 -24 -9 0 -11 -10 -7 -35 4 -26 2 -35 -8 -35 -8 -1
3 -10 24 -21 43 -23 51 -44 11 -29 -19 7 -31 7 -40 -1 -11 -9 -15 -7 -20 6 -6
16 -9 15 -25 -6 -10 -13 -19 -30 -19 -37 0 -8 -6 -12 -12 -9 -8 2 -17 -10 -23
-27 -7 -20 -17 -30 -28 -30 -13 1 -16 -3 -12 -16 5 -15 2 -17 -15 -13 -16 4
-20 0 -21 -18 -1 -17 -3 -19 -6 -6 -2 9 -11 17 -19 17 -18 0 -17 20 1 44 15
19 15 19 15 -2 0 -19 3 -21 19 -13 10 6 24 24 29 41 6 17 18 33 25 36 11 4 8
12 -14 37 -18 20 -25 33 -18 38 8 5 8 9 0 14 -7 4 -19 1 -27 -6 -13 -11 -19
-9 -35 11 -15 20 -21 22 -28 11 -5 -8 -14 -10 -21 -6 -16 10 -32 -16 -20 -31
7 -7 1 -19 -16 -35 -18 -16 -28 -20 -31 -11 -3 6 -11 12 -19 12 -16 0 -19 16
-4 25 16 10 12 35 -7 41 -59 20 -74 31 -84 62 -14 41 -7 49 24 29 21 -14 28
-14 52 -1 15 8 35 14 45 14 13 0 17 5 13 20 -3 13 0 20 8 20 8 0 20 9 26 19
10 15 9 22 -2 31 -8 7 -15 9 -15 4 0 -4 -11 3 -25 16 -29 27 -35 9 -9 -28 12
-18 13 -22 1 -22 -7 0 -20 11 -27 25 -8 14 -19 24 -26 21 -6 -2 -17 1 -23 7
-8 8 -14 8 -22 0 -9 -9 -8 -18 5 -37 13 -21 14 -26 2 -26 -7 0 -19 7 -26 15
-17 21 -30 19 -30 -5 0 -11 -5 -20 -11 -20 -6 0 -8 9 -4 20 7 22 -20 30 -28 8
-2 -7 -8 -10 -12 -6 -4 4 2 16 14 25 l22 18 -29 65 c-16 36 -32 73 -36 84 -4
10 -12 16 -20 13 -10 -4 -18 4 -24 21 l-9 27 -12 -23 c-7 -13 -17 -20 -23 -16
-15 9 -68 13 -68 5 0 -3 7 -15 15 -25 8 -11 15 -30 15 -43 0 -13 5 -23 11 -23
5 0 7 -6 3 -12 -6 -10 -4 -10 7 0 7 6 23 12 35 12 12 0 25 6 28 13 3 8 10 6
21 -8 18 -22 14 -73 -8 -90 -15 -12 -42 -64 -36 -69 2 -2 23 -15 46 -30 39
-23 43 -24 52 -9 8 16 11 15 30 -7 12 -14 19 -33 17 -42 -2 -10 -1 -18 4 -18
4 0 5 -11 3 -24 -3 -15 4 -32 21 -51 14 -15 23 -31 20 -36 -3 -5 0 -9 6 -9 7
0 9 -8 5 -20 -5 -14 -2 -20 9 -20 20 0 21 -16 1 -24 -13 -5 -12 -9 6 -30 12
-13 28 -22 35 -19 19 7 18 23 -1 23 -8 0 -15 5 -15 10 0 6 5 10 11 10 5 0 8 3
6 7 -3 5 -1 17 4 28 8 19 8 19 15 -3 10 -35 38 -23 44 18 3 24 8 31 13 22 7
-10 12 -10 22 -2 10 9 16 7 24 -9 6 -11 11 -27 11 -37 0 -11 4 -14 13 -8 7 5
4 1 -7 -10 -18 -16 -22 -16 -30 -3 -9 14 -12 13 -27 -5 -10 -11 -15 -27 -12
-35 4 -10 2 -14 -4 -10 -6 4 -18 5 -26 1 -21 -8 -9 -44 14 -45 11 -1 24 -3 29
-4 6 -1 15 -3 21 -4 6 0 9 -11 6 -23 -7 -33 24 -82 56 -86 14 -2 31 -10 37
-18 7 -8 27 -14 45 -14 18 0 38 -7 45 -15 18 -22 30 -18 30 10 0 34 26 42 53
17 15 -15 30 -19 45 -15 19 5 22 10 17 34 -7 30 -3 33 30 20 11 -5 28 -4 39 1
12 7 22 6 29 -1 8 -8 8 -11 -1 -11 -6 0 -9 -7 -6 -15 4 -8 0 -22 -7 -31 -10
-13 -10 -17 2 -25 10 -6 10 -9 2 -9 -20 0 -15 -24 8 -39 20 -12 21 -11 16 9
-4 18 -3 20 6 11 6 -6 12 -26 12 -44 1 -27 4 -32 29 -34 19 -1 26 2 23 11 -3
7 -2 18 2 25 9 13 65 -12 88 -39 9 -10 12 -11 13 -2 0 14 20 17 20 2 0 -24 25
-38 49 -29 13 5 32 7 41 4 17 -5 50 17 50 35 0 4 9 10 20 13 12 3 20 14 20 26
0 12 6 21 16 21 8 0 32 11 52 25 l37 26 24 -28 c13 -16 21 -21 18 -11 -4 10
-2 20 3 23 6 4 5 14 -3 26 -10 17 -9 22 8 32 29 17 74 26 81 16 3 -5 9 -7 14
-4 36 22 46 -51 14 -100 -15 -23 -15 -25 0 -19 9 3 16 13 16 21 0 10 6 12 20
8 15 -5 18 -3 14 9 -8 20 10 21 26 1 11 -13 14 -13 25 2 8 10 17 15 21 11 4
-4 1 -14 -6 -23 -11 -13 -10 -14 4 -9 9 3 16 9 16 13 0 4 6 8 13 8 64 4 97 13
120 33 l27 24 -21 22 c-12 13 -19 30 -16 38 4 9 2 16 -3 16 -6 0 -10 5 -10 11
0 8 5 8 15 -1 8 -7 13 -16 10 -20 -3 -5 -1 -11 5 -15 6 -4 8 -10 6 -14 -3 -4
4 -12 14 -19 25 -15 49 10 31 32 -10 12 -8 17 7 25 11 6 23 7 26 3 4 -4 12 1
17 11 6 9 19 17 29 17 11 0 19 3 19 8 -3 19 3 22 23 11 18 -10 24 -8 35 7 11
15 10 20 -4 36 -16 18 -16 19 5 25 27 7 28 15 2 31 -11 7 -20 21 -20 33 0 16
-4 19 -20 14 -15 -5 -18 -3 -14 9 8 20 -10 21 -30 1 -17 -17 -36 -20 -36 -5 0
6 -9 10 -19 10 -11 0 -27 10 -35 22 -9 12 -16 18 -17 13 0 -6 -5 6 -12 25 -14
40 -27 43 -44 10 l-11 -22 -12 22 c-14 26 -16 24 40 43 25 9 44 21 42 27 -1 6
13 17 31 25 19 8 41 24 50 37 16 23 16 22 16 -19 1 -47 12 -59 41 -43 18 9 20
8 20 -15 0 -23 3 -25 22 -19 12 3 28 12 35 20 18 18 17 73 -3 81 -8 3 -13 12
-10 19 6 16 -10 19 -19 4 -8 -12 -45 -13 -45 -1 0 4 11 20 25 35 14 15 25 36
25 47 0 11 11 24 26 31 25 12 27 24 8 72 -4 11 -1 16 11 16 9 0 13 5 10 10 -3
6 -18 10 -33 10 -19 0 -23 -3 -14 -9 11 -7 10 -10 -3 -15 -24 -9 -28 -8 -21 9
3 8 1 15 -4 15 -6 0 -10 -5 -10 -11 0 -6 -6 -9 -13 -6 -20 8 -75 -22 -83 -45
-5 -18 -7 -18 -30 -3 -15 10 -24 11 -24 4 0 -8 -4 -8 -15 1 -8 7 -15 20 -15
30 0 12 -9 17 -32 17 -18 0 -39 -4 -45 -10 -16 -12 -17 -49 -1 -65 9 -9 9 -12
1 -12 -17 0 -27 21 -29 60 -1 19 -6 55 -10 79 -6 40 -6 43 13 37 24 -8 36 13
22 35 -9 12 -12 11 -21 -3 -11 -15 -13 -15 -23 5 -8 18 -21 23 -62 25 l-51 3
2 49 c1 44 16 87 16 47 0 -10 4 -17 9 -17 6 0 11 -15 13 -32 2 -18 8 -33 13
-33 6 0 11 15 13 33 2 17 8 32 14 32 6 0 8 10 4 26 -5 18 -3 24 5 18 8 -4 9
-3 5 4 -4 7 -14 12 -22 12 -8 0 -14 4 -14 8 0 4 -20 18 -45 30 -25 12 -44 25
-43 29 4 14 -13 53 -23 53 -5 0 -9 5 -9 10 0 6 6 10 14 10 22 0 29 18 21 57
-6 34 -7 35 -43 28 -45 -8 -51 -13 -32 -25 13 -8 12 -10 -2 -10 -9 0 -21 8
-27 17 -9 17 -11 16 -30 -1 -21 -19 -21 -19 -21 2 0 12 5 22 10 22 6 0 19 9
29 19 25 25 12 30 -54 24 -40 -4 -54 -2 -65 13 -14 16 -13 17 18 11 21 -4 31
-3 27 3 -3 6 -13 10 -21 10 -8 0 -14 4 -14 9 0 5 -3 17 -6 25 -5 12 -2 15 12
10 17 -5 17 -4 -2 13 -11 10 -21 22 -21 28 -1 5 -7 11 -14 14 -9 3 -10 -6 -6
-33 6 -37 -5 -48 -21 -20 -6 11 -17 15 -31 11 -16 -4 -21 -1 -21 14 0 10 5 19
11 19 5 0 7 5 4 10 -8 13 14 35 41 42 16 4 25 -1 35 -18 14 -28 35 -33 24 -6
-14 32 -17 62 -8 62 16 0 13 57 -3 71 -21 17 -17 31 6 19 11 -6 20 -8 20 -4 0
3 14 -6 31 -21 18 -14 45 -29 61 -32 16 -3 32 -12 35 -19 3 -8 9 -11 14 -8 5
3 9 1 9 -5 0 -5 3 -17 7 -27 5 -14 2 -16 -14 -12 -15 4 -20 1 -19 -11 2 -14
17 -23 98 -63 39 -18 111 6 114 40 3 33 5 34 38 29 19 -3 39 0 45 6 9 9 14 8
21 -3 9 -13 11 -13 20 0 5 8 10 11 10 7 0 -4 9 -3 21 3 15 9 24 8 35 -1 11 -9
18 -9 27 0 9 9 7 13 -10 17 -12 3 -24 12 -27 20 -7 18 -2 18 34 -1 18 -9 31
-11 35 -5 12 20 25 9 25 -21 0 -23 -4 -30 -15 -25 -10 4 -14 -1 -12 -17 2 -26
27 -57 44 -57 7 0 13 -4 13 -10 0 -5 -4 -10 -10 -10 -5 0 -10 -12 -10 -26 0
-23 3 -25 38 -22 33 3 37 1 34 -19 -2 -15 2 -23 11 -23 8 0 21 -7 28 -16 12
-14 10 -16 -15 -12 -24 2 -30 -1 -32 -19 -2 -13 1 -23 6 -23 5 0 9 -11 8 -25
-3 -33 -14 -32 -33 5 -9 17 -27 35 -41 41 -17 6 -24 14 -20 24 3 10 -1 15 -13
15 -35 0 -34 -69 2 -98 8 -7 28 -12 44 -10 22 2 27 -1 25 -14 -2 -10 2 -18 8
-18 5 0 10 -7 10 -15 0 -9 7 -18 15 -21 25 -10 17 -25 -10 -18 -18 4 -25 2
-25 -8 0 -13 6 -15 64 -21 13 -1 21 -7 19 -14 -2 -6 5 -14 16 -18 12 -3 21
-12 21 -19 0 -7 9 -21 20 -31 20 -18 20 -17 20 8 0 14 5 29 11 32 20 13 67 16
74 5 3 -6 12 -7 18 -3 7 4 4 -4 -5 -19 -13 -19 -14 -28 -5 -37 9 -9 9 -14 -1
-20 -7 -4 -10 -15 -6 -25 4 -10 -1 -24 -10 -35 -9 -10 -16 -25 -14 -32 2 -9
-5 -13 -19 -11 -13 2 -23 -2 -23 -7 0 -6 -8 -11 -17 -11 -10 0 1 -10 25 -21
34 -17 42 -26 39 -41 -4 -15 -1 -18 16 -12 29 9 28 6 15 42 -11 28 -10 34 10
55 23 25 28 43 13 49 -17 6 -18 108 -1 108 6 0 10 -6 10 -13 0 -8 6 -14 13
-14 11 0 12 12 6 51 -5 27 -5 54 -1 60 5 6 10 29 11 51 2 22 7 42 11 45 5 3
11 22 15 43 4 20 12 37 17 37 5 0 6 9 3 21 -12 36 3 89 25 89 16 0 20 7 20 30
0 17 4 30 9 30 5 0 12 8 15 17 4 10 4 15 1 11 -8 -8 -59 40 -75 71 -9 18 -14
20 -20 11 -6 -9 -9 -4 -12 16 -2 17 -8 28 -15 27 -21 -5 -14 18 7 24 15 4 18
11 14 29 -6 25 10 34 19 12 4 -10 6 -10 6 -1 1 7 8 10 17 6 14 -5 16 -2 10 23
-4 16 -12 31 -17 32 -5 2 -7 8 -3 13 3 5 0 9 -7 9 -7 0 -10 -11 -7 -29 3 -21
1 -28 -9 -24 -7 3 -13 11 -13 19 0 7 -9 18 -20 24 -11 6 -20 20 -20 30 0 11
-5 20 -11 20 -8 0 -8 4 0 14 9 11 9 15 -1 18 -16 6 -35 -13 -49 -49 -10 -27
-11 -27 -21 -8 -6 11 -12 21 -13 23 -7 9 -35 -14 -35 -30 0 -11 -4 -16 -11
-13 -6 4 -8 14 -4 24 4 10 -1 8 -15 -6 -11 -13 -31 -23 -45 -23 -13 0 -30 -3
-39 -6 -9 -3 -25 4 -39 20 -25 27 -48 37 -27 11 9 -11 8 -18 -7 -33 -19 -19
-20 -19 -70 -7 -27 6 -32 12 -35 46 -3 36 -1 41 26 54 16 8 32 13 34 10 3 -3
0 -5 -6 -5 -6 0 -9 -7 -5 -16 4 -12 9 -8 20 15 14 29 14 33 -13 78 -16 26 -29
55 -30 63 -3 19 40 -33 67 -80 11 -19 30 -50 43 -67 20 -27 26 -30 36 -18 8
10 9 19 0 35 -14 26 -4 43 22 34 17 -5 19 -3 14 15 -20 69 -20 68 12 36 16
-17 35 -41 41 -54 19 -35 23 -19 6 23 -9 21 -14 45 -11 54 4 11 -15 38 -54 80
-52 54 -59 67 -54 90 l7 27 -22 -22 c-23 -24 -40 -32 -24 -10 7 8 4 17 -8 29
-9 9 -20 14 -23 11 -8 -9 -37 18 -30 28 3 5 1 9 -4 9 -6 0 -8 9 -5 20 3 11 0
20 -6 20 -6 0 -11 -6 -11 -14 0 -7 -12 -16 -26 -19 -19 -3 -28 1 -35 17 -6 15
-7 9 -3 -19 4 -22 11 -47 17 -55 6 -8 -2 -3 -19 13 -17 15 -38 27 -47 27 -10
0 -14 6 -11 13 3 8 -2 19 -10 26 -12 10 -13 16 -3 26 8 9 16 10 24 3 15 -12
29 -4 36 23 4 16 -1 23 -26 34 -28 12 -33 11 -39 -3 -5 -14 -7 -13 -7 4 -1 15
-17 32 -51 54 -55 35 -56 35 -62 5 -1 -11 -7 -23 -12 -27 -5 -3 -2 -14 7 -23
13 -12 17 -13 17 -3 0 13 38 43 46 36 9 -9 -10 -48 -24 -48 -13 0 -13 -2 1
-18 18 -19 23 -42 10 -42 -15 1 -73 60 -73 75 0 16 -16 20 -24 6 -3 -5 -18
-12 -32 -15 -19 -5 -30 -2 -39 11 -11 15 -15 15 -29 4 -12 -10 -20 -11 -27 -4
-15 15 -51 4 -45 -13 3 -8 -1 -14 -11 -14 -13 0 -13 -3 -3 -15 19 -23 3 -31
-20 -10 -16 14 -23 16 -32 7 -7 -7 -16 -12 -22 -12 -5 0 -2 6 8 13 16 12 16
14 -3 38 -11 15 -17 30 -13 34 4 5 -1 5 -10 2 -10 -4 -18 -2 -18 3 0 6 3 10 8
10 4 0 13 9 20 20 14 23 14 24 -18 7z m210 -87 c0 -5 -2 -10 -4 -10 -3 0 -8 5
-11 10 -3 6 -1 10 4 10 6 0 11 -4 11 -10z m210 -86 c0 -8 -4 -12 -10 -9 -5 3
-10 10 -10 16 0 5 5 9 10 9 6 0 10 -7 10 -16z m-169 -16 c28 -35 23 -39 -21
-16 -22 12 -40 25 -40 30 0 17 43 7 61 -14z m-233 -46 c-3 -10 1 -23 9 -30 13
-12 19 -62 7 -62 -10 0 -34 28 -35 42 0 7 -4 3 -10 -10 -10 -27 -29 -21 -29
10 0 11 8 22 20 25 11 3 20 14 20 24 0 11 5 19 11 19 6 0 9 -8 7 -18z m537
-50 c-3 -3 -11 0 -18 7 -9 10 -8 11 6 5 10 -3 15 -9 12 -12z m-195 -12 c0 -5
-4 -10 -10 -10 -5 0 -10 5 -10 10 0 6 5 10 10 10 6 0 10 -4 10 -10z m238 -75
c3 -25 2 -27 -12 -16 -19 16 -22 55 -3 49 6 -3 14 -17 15 -33z m-483 15 c3 -5
-3 -10 -15 -10 -12 0 -18 5 -15 10 3 6 10 10 15 10 5 0 12 -4 15 -10z m172 -6
c-3 -3 -12 -4 -19 -1 -8 3 -5 6 6 6 11 1 17 -2 13 -5z m531 -59 c-3 -3 -9 2
-12 12 -6 14 -5 15 5 6 7 -7 10 -15 7 -18z m-1648 -9 c-1 -15 -22 -40 -38 -44
-7 -1 -20 4 -28 13 -14 13 -13 16 10 25 14 5 26 14 26 19 0 6 7 8 15 5 8 -4
15 -11 15 -18z m1190 -1 c7 -9 10 -18 7 -21 -10 -11 -37 5 -37 21 0 19 14 19
30 0z m-56 -16 c-3 -5 -10 -7 -15 -3 -5 3 -7 10 -3 15 3 5 10 7 15 3 5 -3 7
-10 3 -15z m189 -39 c-4 -16 -8 -18 -19 -9 -8 6 -14 20 -14 31 0 15 3 17 19 8
13 -6 17 -17 14 -30z m45 17 l22 -23 -24 1 c-25 0 -50 15 -26 15 10 0 10 3 0
15 -20 24 4 17 28 -8z m-104 -85 c4 -11 18 -25 32 -33 21 -11 25 -19 20 -41
-3 -15 -1 -30 4 -33 11 -7 14 -85 3 -85 -4 0 -17 10 -30 21 -20 20 -23 20 -29
5 -3 -9 -4 -22 -1 -30 8 -20 -20 -43 -34 -29 -7 7 -7 17 1 30 10 15 9 28 -3
63 -9 25 -21 44 -27 42 -14 -3 -40 16 -40 29 0 10 57 -9 85 -28 11 -7 24 -13
30 -13 5 0 -3 9 -19 19 -40 27 -53 51 -34 65 8 6 13 17 11 24 -3 6 2 12 10 12
9 0 18 -8 21 -18z m96 -33 c0 -10 -4 -19 -10 -19 -5 0 -10 12 -10 26 0 14 4
23 10 19 6 -3 10 -15 10 -26z m460 -71 c0 -13 -23 -5 -28 10 -2 7 2 10 12 6 9
-3 16 -11 16 -16z m-1805 -17 c-8 -13 -35 -15 -35 -2 0 5 8 11 18 13 21 5 26
2 17 -11z m778 -81 c6 -22 0 -25 -22 -11 -7 5 -10 14 -7 20 11 17 23 13 29 -9z
m537 -20 c0 -5 -2 -10 -4 -10 -3 0 -8 5 -11 10 -3 6 -1 10 4 10 6 0 11 -4 11
-10z m-918 -8 c-7 -5 -10 -16 -6 -25 3 -9 2 -17 -4 -17 -14 0 -22 38 -8 44 19
8 32 6 18 -2z m434 -22 c8 0 11 -6 7 -16 -6 -15 -8 -15 -20 2 -7 10 -13 23
-12 28 0 6 3 5 6 -1 2 -7 11 -13 19 -13z m584 -10 c0 -5 -2 -10 -4 -10 -3 0
-8 5 -11 10 -3 6 -1 10 4 10 6 0 11 -4 11 -10z m-671 -9 c6 -1 -21 -31 -28
-31 -16 1 -33 19 -27 29 6 9 17 9 55 2z m711 5 c0 -3 -4 -8 -10 -11 -5 -3 -10
-1 -10 4 0 6 5 11 10 11 6 0 10 -2 10 -4z m-665 -17 c11 -17 -1 -21 -15 -4 -8
9 -8 15 -2 15 6 0 14 -5 17 -11z m-453 -41 c-7 -7 -12 -20 -12 -30 0 -20 -16
-25 -22 -6 -5 13 21 46 37 47 5 1 4 -4 -3 -11z m148 6 c0 -17 -44 -64 -61 -64
-14 0 -19 -7 -19 -29 0 -17 -5 -33 -12 -37 -7 -4 -8 -3 -4 4 4 7 2 12 -4 12
-15 0 -3 59 17 79 24 24 83 49 83 35z m-620 -59 c0 -8 -4 -15 -10 -15 -5 0
-10 7 -10 15 0 8 5 15 10 15 6 0 10 -7 10 -15z m2024 -17 c-3 -4 -9 -8 -15 -8
-5 0 -9 4 -9 8 0 5 7 9 15 9 8 0 12 -4 9 -9z m-35 -41 c1 -5 -3 -5 -9 -2 -5 3
-10 16 -9 28 0 21 1 21 9 2 5 -11 9 -24 9 -28z m-2049 -31 c0 -24 -17 -28 -23
-6 -3 13 0 20 9 20 8 0 14 -6 14 -14z m693 -31 c8 -19 -13 -31 -24 -14 -13 20
-11 29 5 29 8 0 16 -7 19 -15z m167 -59 c0 -6 -5 -18 -10 -26 -14 -23 -32 2
-24 34 5 21 9 24 20 15 8 -6 14 -17 14 -23z m-290 4 c0 -5 -4 -10 -10 -10 -5
0 -10 5 -10 10 0 6 5 10 10 10 6 0 10 -4 10 -10z m274 -110 c-7 -6 -24 22 -23
40 0 9 6 5 14 -10 7 -14 11 -27 9 -30z m186 29 c-7 -11 -14 -19 -16 -16 -7 7
7 37 17 37 6 0 5 -9 -1 -21z m-150 -9 c0 -5 -2 -10 -4 -10 -3 0 -8 5 -11 10
-3 6 -1 10 4 10 6 0 11 -4 11 -10z m-120 -74 c0 -17 4 -16 30 9 31 29 38 28
20 -5 -8 -15 -69 -46 -75 -38 -1 2 0 20 3 42 3 26 7 34 13 25 5 -8 9 -23 9
-33z m1025 34 c-3 -5 -12 -10 -18 -10 -7 0 -6 4 3 10 19 12 23 12 15 0z m49
-6 c23 -9 20 -23 -4 -17 -11 3 -20 9 -20 14 0 11 3 11 24 3z m73 -50 c-3 -3
-12 -4 -19 -1 -8 3 -5 6 6 6 11 1 17 -2 13 -5z m-7 -24 c0 -5 -9 -10 -20 -10
-11 0 -20 5 -20 10 0 6 9 10 20 10 11 0 20 -4 20 -10z m-885 -26 c-11 -8 -20
-20 -20 -27 0 -11 -6 -12 -37 -8 -17 2 21 39 46 44 11 2 23 5 26 5 3 1 -4 -5
-15 -14z m68 -25 c40 -11 45 -20 22 -39 -12 -10 -15 -10 -15 2 0 15 -29 34
-65 41 l-20 5 20 1 c11 0 37 -4 58 -10z m197 -89 c0 -5 -4 -10 -9 -10 -6 0
-13 5 -16 10 -3 6 1 10 9 10 9 0 16 -4 16 -10z m-1050 -40 c0 -5 -4 -10 -10
-10 -5 0 -10 5 -10 10 0 6 5 10 10 10 6 0 10 -4 10 -10z m598 -30 c17 -11 32
-24 32 -30 0 -11 -59 -70 -70 -70 -14 0 -21 -52 -10 -65 8 -9 8 -15 0 -20 -5
-3 -10 -15 -10 -26 0 -23 -15 -25 -24 -3 -10 26 -7 59 7 78 12 16 10 22 -7 41
-12 13 -25 20 -31 16 -17 -13 -55 -20 -60 -11 -6 9 13 24 30 25 6 0 9 8 7 17
-3 18 62 68 88 68 8 0 30 -9 48 -20z m-808 -40 c0 -5 -5 -10 -11 -10 -5 0 -7
5 -4 10 3 6 8 10 11 10 2 0 4 -4 4 -10z m60 -31 c0 -11 -4 -17 -10 -14 -5 3
-10 13 -10 21 0 8 5 14 10 14 6 0 10 -9 10 -21z m1620 -65 c0 -2 -9 -4 -21 -4
-11 0 -18 4 -14 10 5 8 35 3 35 -6z m-1205 -43 c10 -17 -11 -21 -31 -6 -18 14
-18 14 3 15 12 0 24 -4 28 -9z m1145 -8 c-1 -18 -19 -35 -29 -28 -9 5 -9 10 0
21 12 15 29 19 29 7z m-142 -68 c11 -9 11 -16 0 -42 -11 -26 -17 -30 -31 -21
-13 7 -25 5 -43 -6 -32 -22 -30 -8 6 34 17 21 30 47 30 65 l1 30 12 -25 c6
-14 18 -30 25 -35z m-1013 35 c3 -5 1 -10 -4 -10 -6 0 -11 5 -11 10 0 6 2 10
4 10 3 0 8 -4 11 -10z m242 -95 c-20 -19 -27 -9 -13 20 9 19 13 21 19 9 5 -9
3 -20 -6 -29z m371 -75 c2 -19 0 -31 -5 -27 -4 5 -8 19 -8 30 0 12 -6 21 -12
20 -7 -2 -13 2 -13 8 0 6 8 9 18 7 11 -2 18 -14 20 -38z m332 21 c0 -4 9 -16
19 -28 19 -20 19 -20 -11 -21 -21 0 -29 4 -27 16 3 30 -1 33 -23 21 -23 -12
-23 -12 -5 9 17 19 47 21 47 3z m-390 -21 c0 -5 -5 -10 -11 -10 -5 0 -7 5 -4
10 3 6 8 10 11 10 2 0 4 -4 4 -10z m235 -10 c-3 -5 -18 -10 -33 -10 -21 0 -24
2 -12 10 20 13 53 13 45 0z m-621 -37 c4 -4 17 -8 29 -8 15 0 21 -5 19 -17 -2
-11 3 -18 13 -18 24 0 17 -20 -7 -21 -13 0 -17 -3 -10 -6 6 -2 12 -13 12 -24
0 -11 -5 -16 -14 -13 -20 8 -7 -47 16 -68 22 -19 16 -40 -8 -31 -12 5 -13 1
-3 -21 8 -17 18 -25 27 -21 17 6 52 -22 52 -42 0 -20 -61 -13 -86 9 -20 18
-23 18 -38 3 -9 -9 -16 -22 -16 -28 0 -7 -11 1 -24 18 -13 16 -22 33 -19 38 2
4 -5 19 -17 34 -15 20 -18 29 -9 32 7 2 15 -1 17 -7 4 -13 32 -16 32 -4 0 4
14 16 31 26 29 17 29 19 15 39 -9 12 -23 32 -32 44 -11 15 -13 32 -8 57 6 35
14 43 28 29z m-599 -52 c-10 -16 -25 -3 -25 22 0 20 1 20 16 5 9 -9 13 -21 9
-27z m169 8 c12 -25 13 -35 4 -46 -15 -18 -24 -6 -31 40 -7 45 6 48 27 6z
m1266 -80 c0 -5 -4 -9 -10 -9 -5 0 -10 7 -10 16 0 8 5 12 10 9 6 -3 10 -10 10
-16z m80 -29 c0 -5 -5 -10 -11 -10 -5 0 -7 5 -4 10 3 6 8 10 11 10 2 0 4 -4 4
-10z m-152 -40 c-12 -17 -23 -28 -25 -26 -7 6 31 64 39 60 4 -3 -2 -18 -14
-34z m-416 -7 c19 -17 25 -53 8 -53 -6 0 -13 7 -16 15 -4 8 -14 15 -23 15 -10
0 -17 9 -18 20 -2 25 23 26 49 3z m728 -53 c0 -5 -5 -10 -11 -10 -5 0 -7 5 -4
10 3 6 8 10 11 10 2 0 4 -4 4 -10z m-431 -32 c-5 -10 -15 -18 -22 -17 -9 0 -9
2 1 6 6 2 12 9 12 14 0 4 -7 6 -15 3 -8 -4 -15 -12 -15 -19 0 -7 -8 -19 -17
-26 -16 -13 -17 -12 -5 3 10 12 10 18 1 24 -17 10 18 34 47 32 18 -2 21 -6 13
-20z m54 -44 c-4 -12 -53 -26 -53 -15 0 3 7 15 15 25 8 11 12 29 9 40 -3 14 1
10 14 -9 10 -16 17 -35 15 -41z m-527 10 c-3 -8 0 -11 11 -7 11 4 14 1 11 -13
-3 -14 -11 -18 -33 -16 -36 4 -47 19 -33 42 13 20 52 15 44 -6z m29 16 c3 -5
1 -10 -4 -10 -6 0 -11 5 -11 10 0 6 2 10 4 10 3 0 8 -4 11 -10z m-635 -31 c0
-5 -4 -9 -10 -9 -5 0 -10 7 -10 16 0 8 5 12 10 9 6 -3 10 -10 10 -16z m50 -5
c0 -8 -4 -12 -10 -9 -5 3 -10 10 -10 16 0 5 5 9 10 9 6 0 10 -7 10 -16z m220
6 c0 -5 -5 -10 -11 -10 -5 0 -7 5 -4 10 3 6 8 10 11 10 2 0 4 -4 4 -10z m272
-22 c-17 -17 -15 -33 3 -18 24 20 29 4 7 -18 -18 -18 -21 -18 -26 -4 -3 10 -9
22 -12 29 -3 6 3 13 13 16 10 3 20 5 23 6 2 0 -1 -4 -8 -11z m78 -44 c0 -8 -3
-14 -8 -14 -11 0 -32 37 -25 44 9 8 33 -14 33 -30z m140 -2 c0 -4 10 -8 21 -9
31 -3 35 -11 13 -27 -13 -10 -24 -11 -37 -4 -10 5 -20 8 -21 6 -1 -2 -7 -14
-13 -28 -11 -24 -12 -24 -12 -3 -1 27 -18 38 -35 24 -14 -12 -26 -5 -26 16 0
9 8 12 24 9 14 -2 33 2 43 9 20 16 43 19 43 7z m-250 -23 c4 -8 12 -24 18 -35
19 -37 -7 -46 -46 -16 -21 16 -22 21 -11 45 13 29 28 31 39 6z"/>
<path d="M2670 1555 c-8 -9 -8 -15 -2 -15 12 0 26 19 19 26 -2 2 -10 -2 -17
-11z"/>
<path d="M1990 3354 c0 -14 3 -14 15 -4 8 7 15 14 15 16 0 2 -7 4 -15 4 -8 0
-15 -7 -15 -16z"/>
<path d="M2930 3333 c0 -7 6 -13 13 -13 8 0 14 6 14 13 0 8 -6 14 -14 14 -7 0
-13 -6 -13 -14z"/>
<path d="M1726 3332 c-2 -4 4 -9 15 -9 10 -1 19 2 19 8 0 11 -27 12 -34 1z"/>
<path d="M1776 3321 c-16 -11 -34 -17 -41 -15 -7 3 -14 -3 -17 -13 -4 -15 1
-18 32 -17 40 1 114 40 104 55 -9 15 -47 10 -78 -10z"/>
<path d="M1966 3279 c3 -6 1 -15 -6 -19 -9 -6 -9 -12 -1 -29 16 -30 28 -26 36
10 5 22 3 34 -6 40 -20 12 -31 11 -23 -2z"/>
<path d="M1747 3199 c-9 -6 -15 -14 -12 -20 9 -14 45 -11 60 5 12 12 12 15 -1
20 -21 8 -26 7 -47 -5z"/>
<path d="M1839 3182 c-14 -9 -24 -23 -21 -31 2 -7 -1 -17 -8 -21 -7 -4 -13
-22 -14 -39 0 -17 -5 -31 -10 -31 -5 0 -6 13 -3 29 9 44 -15 59 -50 32 -14
-12 -33 -31 -41 -42 -9 -13 -20 -18 -34 -14 -12 4 -27 0 -39 -11 -27 -24 -24
-31 16 -29 38 1 45 -13 20 -38 -8 -8 -12 -17 -10 -19 3 -3 -9 -5 -25 -5 -37 0
-47 -8 -30 -28 17 -20 21 -20 59 15 31 29 32 29 29 8 -1 -13 0 -23 3 -23 3 0
13 -6 21 -13 13 -11 20 -7 45 25 16 21 34 50 41 66 7 17 19 27 32 27 11 0 20
4 20 8 0 4 18 13 40 19 34 9 42 8 50 -6 8 -14 11 -14 19 -2 6 10 5 21 -5 35
-8 11 -14 28 -14 38 0 9 -6 21 -13 25 -8 4 -19 17 -25 28 -10 17 -11 18 -12 3
0 -10 -5 -18 -11 -18 -6 0 -9 7 -5 15 3 8 4 15 3 14 -1 0 -14 -8 -28 -17z
m-64 -142 c3 -5 1 -10 -4 -10 -6 0 -11 5 -11 10 0 6 2 10 4 10 3 0 8 -4 11
-10z"/>
<path d="M1645 3181 c-3 -5 -1 -12 5 -16 5 -3 10 1 10 9 0 18 -6 21 -15 7z"/>
<path d="M1675 3180 c-3 -5 -2 -10 4 -10 5 0 13 5 16 10 3 6 2 10 -4 10 -5 0
-13 -4 -16 -10z"/>
<path d="M1483 3096 c-13 -6 -23 -14 -23 -18 0 -14 17 -8 35 12 20 22 20 22
-12 6z"/>
<path d="M1410 3089 c0 -5 5 -7 10 -4 6 3 10 8 10 11 0 2 -4 4 -10 4 -5 0 -10
-5 -10 -11z"/>
<path d="M1269 3054 c-13 -14 -34 -30 -47 -35 -13 -5 -21 -13 -18 -18 4 -5 0
-12 -6 -14 -7 -3 -3 -6 10 -6 12 -1 22 4 22 10 0 5 5 7 10 4 6 -4 20 4 31 17
l21 23 -6 -24 -5 -24 21 21 c18 17 19 24 9 36 -7 8 -10 20 -6 26 13 20 -12 9
-36 -16z"/>
<path d="M900 3031 c0 -11 4 -22 9 -25 5 -3 9 6 9 19 0 14 -4 25 -9 25 -5 0
-9 -9 -9 -19z"/>
<path d="M1197 2963 c-10 -9 -9 -23 2 -23 5 0 11 7 15 15 5 15 -5 20 -17 8z"/>
<path d="M843 2900 c2 -28 7 -36 24 -38 17 -3 20 1 16 16 -2 11 0 23 6 26 6 4
11 13 11 19 0 7 -5 4 -11 -5 -5 -10 -16 -18 -24 -18 -7 0 -16 8 -19 18 -2 9
-4 1 -3 -18z"/>
<path d="M1160 2919 c0 -5 5 -7 10 -4 6 3 10 8 10 11 0 2 -4 4 -10 4 -5 0 -10
-5 -10 -11z"/>
<path d="M1516 2893 c-6 -14 -5 -15 5 -6 7 7 10 15 7 18 -3 3 -9 -2 -12 -12z"/>
<path d="M790 2886 c0 -8 3 -17 8 -19 9 -6 33 19 25 27 -12 11 -33 6 -33 -8z"/>
<path d="M2153 2836 c9 -7 17 -21 17 -30 0 -9 5 -16 10 -16 6 0 10 7 10 16 0
17 -27 43 -45 43 -5 0 -2 -6 8 -13z"/>
<path d="M2056 2815 c25 -19 40 -19 24 0 -7 8 -20 15 -28 15 -13 0 -12 -3 4
-15z"/>
<path d="M1985 2770 c-3 -11 -10 -20 -15 -20 -5 0 -7 -7 -4 -15 5 -12 21 -15
70 -14 35 1 64 5 64 10 0 5 -9 9 -19 9 -11 0 -26 8 -33 19 -21 29 -55 36 -63
11z"/>
<path d="M1270 2766 c0 -9 5 -16 10 -16 6 0 10 4 10 9 0 6 -4 13 -10 16 -5 3
-10 -1 -10 -9z"/>
<path d="M1580 2760 c0 -5 4 -10 9 -10 6 0 13 5 16 10 3 6 -1 10 -9 10 -9 0
-16 -4 -16 -10z"/>
<path d="M1226 2735 c-27 -25 -32 -35 -17 -35 5 0 19 14 31 30 26 36 22 38
-14 5z"/>
<path d="M770 2701 c0 -6 5 -13 10 -16 6 -3 10 1 10 9 0 9 -4 16 -10 16 -5 0
-10 -4 -10 -9z"/>
<path d="M1067 2693 c-4 -7 -3 -35 2 -66 0 -5 5 -6 10 -2 5 3 12 -3 15 -12 4
-15 4 -14 3 2 -1 11 2 26 6 33 11 17 -1 52 -18 52 -8 0 -16 -3 -18 -7z"/>
<path d="M1487 2686 c-4 -10 -1 -13 9 -9 15 6 19 23 5 23 -5 0 -11 -7 -14 -14z"/>
<path d="M1520 2681 c0 -17 18 -21 24 -6 3 9 0 15 -9 15 -8 0 -15 -4 -15 -9z"/>
<path d="M2288 2525 c17 -8 32 -19 32 -25 0 -6 -4 -8 -10 -5 -5 3 -10 1 -10
-4 0 -6 -7 -11 -16 -11 -14 0 -14 -2 1 -16 18 -18 45 -12 45 11 0 8 7 15 15
15 8 0 15 4 15 8 0 14 -22 31 -35 26 -7 -3 -16 -1 -20 5 -3 6 -16 11 -28 11
-18 -1 -16 -3 11 -15z"/>
<path d="M2770 2459 c7 -11 14 -18 17 -15 8 8 -5 36 -17 36 -7 0 -7 -6 0 -21z"/>
<path d="M2630 2449 c0 -5 5 -7 10 -4 6 3 10 8 10 11 0 2 -4 4 -10 4 -5 0 -10
-5 -10 -11z"/>
<path d="M3756 2383 c-6 -14 -5 -15 5 -6 7 7 10 15 7 18 -3 3 -9 -2 -12 -12z"/>
<path d="M2313 2373 c4 -3 0 -15 -10 -25 -15 -17 -15 -18 4 -18 11 0 26 7 34
16 10 13 10 17 -2 25 -16 10 -35 12 -26 2z"/>
<path d="M2520 2305 c-31 -23 -36 -24 -46 -10 -14 19 -34 20 -34 1 0 -23 25
-37 51 -28 15 6 30 5 41 -2 13 -8 21 -7 30 2 9 9 9 12 0 12 -7 0 -12 7 -12 16
0 10 6 14 15 10 9 -3 15 0 15 9 0 22 -22 18 -60 -10z"/>
<path d="M2614 2310 c0 -11 6 -22 13 -24 8 -4 12 3 11 19 -3 30 -24 34 -24 5z"/>
<path d="M2580 2281 c0 -5 5 -13 10 -16 6 -3 10 -2 10 4 0 5 -4 13 -10 16 -5
3 -10 2 -10 -4z"/>
<path d="M830 2269 c0 -5 5 -7 10 -4 6 3 10 8 10 11 0 2 -4 4 -10 4 -5 0 -10
-5 -10 -11z"/>
<path d="M3290 2240 c0 -5 5 -10 10 -10 6 0 10 5 10 10 0 6 -4 10 -10 10 -5 0
-10 -4 -10 -10z"/>
<path d="M3327 2193 c-3 -5 -1 -17 3 -28 7 -19 7 -19 18 0 6 11 12 15 12 8 0
-6 -4 -15 -10 -18 -5 -3 -10 -17 -10 -31 0 -14 -7 -27 -15 -30 -8 -4 -15 -14
-15 -23 0 -9 -7 -26 -15 -38 -19 -28 0 -43 20 -17 8 11 15 15 15 9 0 -5 14
-26 30 -45 23 -27 30 -31 30 -17 0 10 4 16 10 12 10 -6 37 72 27 81 -4 4 -15
1 -24 -7 -17 -13 -17 -13 -3 5 13 17 15 53 4 65 -2 2 -10 -2 -19 -9 -13 -11
-14 -10 -7 10 4 12 6 35 4 51 -3 22 -10 29 -28 29 -12 0 -25 -3 -27 -7z"/>
<path d="M630 2155 c0 -8 4 -15 10 -15 5 0 7 7 4 15 -4 8 -8 15 -10 15 -2 0
-4 -7 -4 -15z"/>
<path d="M2891 2131 c-15 -27 -14 -31 9 -31 13 0 20 7 20 19 0 28 -17 35 -29
12z"/>
<path d="M3540 2092 c0 -12 19 -26 26 -19 2 2 -2 10 -11 17 -9 8 -15 8 -15 2z"/>
<path d="M2949 2030 c-8 -5 -5 -14 10 -29 11 -11 25 -21 30 -21 18 0 21 18 7
33 -8 8 -13 17 -11 19 8 8 -23 5 -36 -2z"/>
<path d="M1230 1990 c0 -5 5 -10 11 -10 5 0 7 5 4 10 -3 6 -8 10 -11 10 -2 0
-4 -4 -4 -10z"/>
<path d="M1581 1944 c0 -11 3 -14 6 -6 3 7 2 16 -1 19 -3 4 -6 -2 -5 -13z"/>
<path d="M2950 1945 c0 -8 9 -24 19 -34 11 -11 17 -21 15 -23 -2 -3 3 -5 11
-5 9 0 14 7 11 16 -2 9 -7 26 -11 39 -7 25 -45 31 -45 7z"/>
<path d="M2874 1942 c4 -7 2 -12 -3 -12 -7 0 -7 -7 1 -20 13 -20 43 -27 52
-11 5 8 -15 30 -43 46 -9 5 -12 4 -7 -3z"/>
<path d="M1504 1929 c-7 -12 15 -31 28 -23 9 6 -1 34 -12 34 -5 0 -12 -5 -16
-11z"/>
<path d="M3560 1928 c0 -9 5 -20 11 -23 17 -11 20 0 4 21 -13 17 -14 17 -15 2z"/>
<path d="M1595 1897 c-5 -18 -2 -32 8 -42 23 -23 29 -18 22 18 -10 45 -23 55
-30 24z"/>
<path d="M2711 1902 c-8 -15 -7 -22 2 -29 27 -22 32 -20 32 10 0 36 -19 47
-34 19z"/>
<path d="M3033 1885 c-17 -19 -16 -30 0 -16 8 6 17 8 20 4 4 -3 7 1 7 10 0 21
-11 21 -27 2z"/>
<path d="M1150 1855 c0 -11 5 -27 10 -35 8 -12 10 -12 10 5 0 11 -5 27 -10 35
-8 12 -10 12 -10 -5z"/>
<path d="M3070 1859 c0 -5 5 -7 10 -4 6 3 10 8 10 11 0 2 -4 4 -10 4 -5 0 -10
-5 -10 -11z"/>
<path d="M3591 1851 c-10 -6 -10 -10 -1 -16 13 -8 24 -1 19 14 -3 6 -10 7 -18
2z"/>
<path d="M995 1840 c3 -5 8 -10 11 -10 2 0 4 5 4 10 0 6 -5 10 -11 10 -5 0 -7
-4 -4 -10z"/>
<path d="M3030 1800 c0 -5 5 -10 11 -10 5 0 7 5 4 10 -3 6 -8 10 -11 10 -2 0
-4 -4 -4 -10z"/>
<path d="M3235 1669 c-4 -6 -5 -12 -2 -15 2 -3 7 2 10 11 7 17 1 20 -8 4z"/>
<path d="M3250 1529 c0 -5 5 -7 10 -4 6 3 10 8 10 11 0 2 -4 4 -10 4 -5 0 -10
-5 -10 -11z"/>
<path d="M3138 1461 c-10 -10 -18 -21 -18 -24 0 -14 23 -7 36 11 26 34 12 44
-18 13z"/>
<path d="M2851 1387 c-6 -6 -11 -15 -11 -19 0 -13 27 -9 39 6 15 18 -11 30
-28 13z"/>
<path d="M3066 1351 c-4 -7 -5 -15 -2 -18 9 -9 19 4 14 18 -4 11 -6 11 -12 0z"/>
<path d="M3047 1305 c-4 -8 -2 -17 3 -20 6 -4 10 -4 10 -1 0 2 3 11 6 20 3 9
2 16 -4 16 -5 0 -12 -7 -15 -15z"/>
<path d="M1731 1023 c15 -25 34 -30 45 -11 5 7 3 8 -5 4 -7 -5 -21 0 -33 11
-21 18 -21 18 -7 -4z"/>
<path d="M1530 981 c0 -5 5 -13 10 -16 6 -3 10 -2 10 4 0 5 -4 13 -10 16 -5 3
-10 2 -10 -4z"/>
<path d="M2364 972 c-17 -12 -11 -48 8 -49 11 -1 18 5 18 15 0 24 -14 42 -26
34z"/>
<path d="M1740 920 c0 -11 5 -20 11 -20 6 0 9 6 6 14 -3 8 -1 17 6 20 7 2 4 5
-5 5 -12 1 -18 -6 -18 -19z"/>
<path d="M2530 900 c0 -5 5 -10 10 -10 6 0 10 5 10 10 0 6 -4 10 -10 10 -5 0
-10 -4 -10 -10z"/>
<path d="M2505 890 c3 -5 8 -10 11 -10 2 0 4 5 4 10 0 6 -5 10 -11 10 -5 0 -7
-4 -4 -10z"/>
<path d="M1543 741 c-6 -3 -13 -17 -17 -31 -3 -14 -3 -19 0 -12 3 6 16 12 29
12 13 0 26 -6 28 -12 4 -9 6 -8 6 2 1 20 -33 50 -46 41z"/>
<path d="M1680 729 c0 -5 5 -7 10 -4 6 3 10 8 10 11 0 2 -4 4 -10 4 -5 0 -10
-5 -10 -11z"/>
<path d="M1735 730 c-3 -5 1 -10 9 -10 9 0 16 5 16 10 0 6 -4 10 -9 10 -6 0
-13 -4 -16 -10z"/>
<path d="M2536 722 c-3 -6 -1 -14 5 -17 15 -10 25 3 12 16 -7 7 -13 7 -17 1z"/>
<path d="M1795 710 c-3 -6 1 -7 9 -4 18 7 21 14 7 14 -6 0 -13 -4 -16 -10z"/>
<path d="M2260 709 c0 -7 3 -9 7 -5 4 3 13 -4 20 -16 l13 -23 -2 25 c-3 25
-38 43 -38 19z"/>
<path d="M2330 670 c0 -5 5 -10 11 -10 5 0 7 5 4 10 -3 6 -8 10 -11 10 -2 0
-4 -4 -4 -10z"/>
<path d="M2310 615 c0 -8 7 -15 16 -15 14 0 14 3 4 15 -7 8 -14 15 -16 15 -2
0 -4 -7 -4 -15z"/>
</g>
</svg>
