<svg width="50" height="51" viewBox="0 0 50 51" fill="none" xmlns="http://www.w3.org/2000/svg">
<path d="M24.282 47.9805C25.6048 47.9805 26.8059 47.7151 27.8851 47.1842C28.9643 46.6533 29.8912 45.9179 30.6658 44.9779C31.4404 44.038 32.0409 42.9196 32.4674 41.6228C32.8938 40.3261 33.107 38.9118 33.1071 37.38C33.107 34.5428 32.6109 32.2408 31.6188 30.474C30.6266 28.7073 29.1819 27.528 27.2846 26.9362C28.0504 28.0502 28.6118 29.1729 28.9687 30.3043C29.3255 31.4357 29.5039 32.5584 29.5039 33.6725C29.5039 34.6472 29.3559 35.622 29.0601 36.5967C28.7641 37.5715 28.3551 38.5114 27.8329 39.4166C27.3107 40.3217 26.6927 41.1746 25.9791 41.9753C25.2654 42.776 24.4908 43.4984 23.6554 44.1424C22.8198 44.7865 21.9364 45.3304 21.0052 45.7743C20.074 46.2181 19.1384 46.5358 18.1984 46.7273C19.0513 47.1624 19.9782 47.4801 20.9791 47.6803C21.98 47.8805 23.0809 47.9805 24.282 47.9805ZM47.4674 26.2312C47.4673 24.9083 47.2019 23.7073 46.671 22.6281C46.1401 21.5489 45.4047 20.622 44.4648 19.8474C43.5248 19.0728 42.4064 18.4723 41.1097 18.0458C39.8128 17.6194 38.3986 17.4062 36.8668 17.4061C34.0296 17.4062 31.7276 17.9022 29.9608 18.8944C28.1941 19.8866 27.0148 21.3313 26.423 23.2286C27.537 22.4627 28.6597 21.9057 29.7911 21.5576C30.9225 21.2095 32.0452 21.0354 33.1593 21.0354C34.134 21.0354 35.1131 21.1834 36.0966 21.4792C37.08 21.7752 38.0243 22.1886 38.9295 22.7194C39.8346 23.2504 40.6919 23.8726 41.5013 24.5863C42.3107 25.3 43.0374 26.0746 43.6815 26.9101C44.3255 27.7456 44.8651 28.6246 45.3003 29.5471C45.7354 30.4697 46.04 31.3922 46.2141 32.3148C46.6492 31.4618 46.9669 30.5393 47.1671 29.5471C47.3672 28.555 47.4673 27.4497 47.4674 26.2312ZM2.53264 24.7952C2.53263 26.1181 2.79808 27.3191 3.32898 28.3983C3.85987 29.4775 4.59529 30.4044 5.53525 31.179C6.47519 31.9536 7.59355 32.5541 8.89034 32.9805C10.1871 33.407 11.6014 33.6202 13.1332 33.6202C15.9878 33.6202 18.2941 33.1242 20.0522 32.132C21.8102 31.1398 22.9939 29.6951 23.6031 27.7978C22.4891 28.5637 21.3664 29.125 20.235 29.4819C19.1035 29.8387 17.9808 30.0171 16.8668 30.0171C15.8921 30.0171 14.9173 29.8692 13.9426 29.5732C12.9678 29.2773 12.0278 28.8683 11.1227 28.3461C10.2176 27.8239 9.3603 27.206 8.55091 26.4923C7.74151 25.7786 7.01479 25.0041 6.37076 24.1685C5.72671 23.333 5.18276 22.4497 4.7389 21.5184C4.29503 20.5872 3.97737 19.6516 3.7859 18.7116C3.35073 19.5646 3.03307 20.4914 2.8329 21.4923C2.63272 22.4932 2.53263 23.5941 2.53264 24.7952ZM25.718 3.04582C24.3951 3.04586 23.1941 3.31131 22.1149 3.84217C21.0357 4.3731 20.1088 5.10852 19.3342 6.04843C18.5596 6.98841 17.9591 8.10677 17.5326 9.40352C17.1062 10.7003 16.8929 12.1146 16.893 13.6463C16.8929 16.501 17.389 18.8074 18.3812 20.5654C19.3733 22.3235 20.8181 23.5071 22.7154 24.1163C21.9495 23.0023 21.3925 21.8796 21.0444 20.7482C20.6962 19.6168 20.5222 18.4941 20.5222 17.38C20.5222 15.9005 20.8442 14.4427 21.4883 13.0067C22.1323 11.5707 22.9852 10.2521 24.047 9.05104C25.1088 7.85003 26.3142 6.8274 27.6632 5.98316C29.0122 5.13898 30.3916 4.57762 31.8016 4.29908C30.9486 3.86396 30.0261 3.54629 29.0339 3.34608C28.0417 3.14594 26.9364 3.04586 25.718 3.04582ZM9.58225 9.12937C8.78154 9.9475 8.18537 10.8439 7.79373 11.8187C7.40208 12.7935 7.20626 13.8117 7.20627 14.8735C7.20626 16.2138 7.51522 17.5759 8.13316 18.9597C8.75108 20.3435 9.66056 21.6359 10.8616 22.8369C12.2541 24.2469 13.6379 25.2956 15.0131 25.9832C16.3881 26.6707 17.7284 27.0145 19.0339 27.0145C20.2002 27.0145 21.3316 26.7273 22.4282 26.1529C20.8094 25.8396 19.3864 25.3043 18.1593 24.5471C16.9321 23.79 15.9051 22.8674 15.0783 21.7795C14.2515 20.6916 13.6336 19.4558 13.2245 18.0719C12.8155 16.6881 12.611 15.2129 12.611 13.6463C12.611 12.0624 12.8024 10.6089 13.1854 9.28603C13.5683 7.96317 14.1253 6.77083 14.8564 5.70901C13.9338 6.00495 13.0461 6.43141 12.1932 6.98838C11.3403 7.54542 10.47 8.25908 9.58225 9.12937ZM41.3838 10.0954C40.5657 9.29476 39.6692 8.69859 38.6945 8.30692C37.7197 7.9153 36.7101 7.71948 35.6658 7.71945C34.3081 7.71948 32.9373 8.02845 31.5535 8.64634C30.1697 9.2643 28.8773 10.1738 27.6762 11.3748C26.2837 12.7673 25.2437 14.1468 24.5561 15.5132C23.8686 16.8796 23.5248 18.2156 23.5248 19.521C23.5248 20.7047 23.812 21.8448 24.3864 22.9414C24.6997 21.3226 25.2306 19.8996 25.9791 18.6725C26.7276 17.4453 27.6501 16.4183 28.7467 15.5915C29.8433 14.7647 31.0792 14.1468 32.4543 13.7377C33.8294 13.3287 35.3002 13.1242 36.8668 13.1241C38.4508 13.1242 39.9086 13.3156 41.2402 13.6986C42.5718 14.0815 43.7685 14.6385 44.8303 15.3696C44.5343 14.4471 44.1079 13.5593 43.5509 12.7064C42.9939 11.8535 42.2715 10.9832 41.3838 10.0954ZM40.4178 41.897C41.2358 41.0789 41.8363 40.1825 42.2193 39.2077C42.6022 38.2329 42.7937 37.2234 42.7937 36.179C42.7937 34.8213 42.4847 33.4549 41.8668 32.0798C41.2489 30.7047 40.3394 29.4079 39.1384 28.1894C37.7632 26.7969 36.3968 25.7569 35.0392 25.0693C33.6814 24.3818 32.3498 24.038 31.0444 24.038C29.8433 24.038 28.6945 24.3252 27.5979 24.8996C29.2167 25.2129 30.6353 25.7438 31.8538 26.4923C33.0722 27.2408 34.0948 28.1633 34.9217 29.2599C35.7484 30.3565 36.3664 31.5924 36.7755 32.9675C37.1845 34.3426 37.389 35.8134 37.389 37.38C37.389 38.964 37.2019 40.4174 36.8277 41.7403C36.4534 43.0632 35.9007 44.2556 35.1697 45.3174C36.0748 45.0214 36.9538 44.5993 37.8068 44.051C38.6597 43.5027 39.53 42.7847 40.4178 41.897ZM8.61619 40.9309C9.43428 41.749 10.3307 42.3496 11.3055 42.7325C12.2802 43.1154 13.2985 43.3069 14.3603 43.3069C15.7006 43.3069 17.0583 42.9979 18.4334 42.38C19.8085 41.7621 21.1053 40.8526 22.3238 39.6516C23.7337 38.259 24.7824 36.8839 25.47 35.5262C26.1575 34.1685 26.5013 32.837 26.5013 31.5315C26.5013 30.3478 26.2141 29.2077 25.6397 28.1111C25.3263 29.7299 24.7911 31.1485 24.0339 32.367C23.2767 33.5854 22.3542 34.6081 21.2663 35.4349C20.1784 36.2617 18.9425 36.8796 17.5587 37.2886C16.1749 37.6977 14.6997 37.9022 13.1332 37.9022C11.5492 37.9022 10.0957 37.7151 8.77285 37.3409C7.44995 36.9666 6.25761 36.414 5.19582 35.6829C5.75282 37.4409 6.89294 39.1903 8.61619 40.9309ZM7.8329 7.35391C9.17318 5.99625 10.6136 4.99102 12.154 4.33825C13.6945 3.68554 15.3351 3.33306 17.0757 3.28081C18.1723 2.39312 19.4473 1.70991 20.9008 1.2312C22.3542 0.752561 23.9599 0.513222 25.718 0.513184C29.443 0.513222 32.55 1.73167 35.0392 4.16854C36.4839 4.30782 37.8894 4.72993 39.2559 5.43485C40.6222 6.13985 41.9234 7.11026 43.1593 8.34608C44.5169 9.70381 45.5265 11.1485 46.188 12.6803C46.8494 14.2121 47.1975 15.8483 47.2324 17.5889C48.1375 18.6855 48.825 19.9605 49.295 21.414C49.765 22.8674 49.9999 24.4732 50 26.2312C49.9999 28.1111 49.6953 29.8213 49.0862 31.3617C48.4769 32.9022 47.5718 34.2991 46.3708 35.5523C46.2315 36.9971 45.8094 38.3983 45.1044 39.756C44.3994 41.1137 43.4203 42.4192 42.1671 43.6725C40.8268 45.0302 39.3951 46.0354 37.8721 46.6881C36.349 47.3409 34.7084 47.6933 32.9504 47.7456C31.8363 48.6333 30.5526 49.3165 29.0992 49.7952C27.6458 50.2738 26.04 50.5132 24.282 50.5132C22.3847 50.5132 20.6701 50.2042 19.1384 49.5863C17.6066 48.9684 16.2141 48.0589 14.9608 46.8578C13.5335 46.7186 12.1366 46.3008 10.7702 45.6046C9.40382 44.9083 8.09399 43.9335 6.84073 42.6803C5.48302 41.34 4.4778 39.904 3.82506 38.3722C3.17232 36.8404 2.81984 35.2042 2.76762 33.4636C1.87989 32.3496 1.19669 31.0658 0.718016 29.6124C0.239337 28.159 -1.7578e-06 26.5532 0 24.7952C-1.7578e-06 22.9153 0.308963 21.2051 0.926893 19.6646C1.54482 18.1242 2.4543 16.7273 3.65535 15.474C3.7946 14.0467 4.21235 12.6499 4.90862 11.2834C5.60487 9.91704 6.57963 8.60721 7.8329 7.35391Z" fill="#FDF7E8"/>
</svg>
