<svg width="50" height="50" viewBox="0 0 50 50" fill="none" xmlns="http://www.w3.org/2000/svg">
<path d="M24.282 47.4674C25.6048 47.4674 26.8059 47.2019 27.8851 46.671C28.9643 46.1401 29.8912 45.4047 30.6658 44.4648C31.4404 43.5248 32.0409 42.4064 32.4674 41.1097C32.8938 39.8129 33.107 38.3986 33.1071 36.8668C33.107 34.0296 32.6109 31.7276 31.6188 29.9608C30.6266 28.1941 29.1819 27.0148 27.2846 26.423C28.0504 27.537 28.6118 28.6597 28.9687 29.7911C29.3255 30.9225 29.5039 32.0453 29.5039 33.1593C29.5039 34.134 29.3559 35.1088 29.0601 36.0836C28.7641 37.0583 28.3551 37.9983 27.8329 38.9034C27.3107 39.8085 26.6927 40.6614 25.9791 41.4621C25.2654 42.2628 24.4908 42.9852 23.6554 43.6292C22.8198 44.2733 21.9364 44.8172 21.0052 45.2611C20.074 45.705 19.1384 46.0226 18.1984 46.2141C19.0513 46.6493 19.9782 46.9669 20.9791 47.1671C21.98 47.3673 23.0809 47.4674 24.282 47.4674ZM47.4674 25.718C47.4673 24.3951 47.2019 23.1941 46.671 22.1149C46.1401 21.0357 45.4047 20.1088 44.4648 19.3342C43.5248 18.5596 42.4064 17.9591 41.1097 17.5326C39.8128 17.1062 38.3986 16.893 36.8668 16.893C34.0296 16.893 31.7276 17.3891 29.9608 18.3812C28.1941 19.3734 27.0148 20.8181 26.423 22.7154C27.537 21.9495 28.6597 21.3925 29.7911 21.0444C30.9225 20.6963 32.0452 20.5222 33.1593 20.5222C34.134 20.5222 35.1131 20.6702 36.0966 20.9661C37.08 21.262 38.0243 21.6754 38.9295 22.2063C39.8346 22.7372 40.6919 23.3595 41.5013 24.0731C42.3107 24.7868 43.0374 25.5614 43.6815 26.3969C44.3255 27.2324 44.8651 28.1114 45.3003 29.0339C45.7354 29.9565 46.04 30.879 46.2141 31.8016C46.6492 30.9487 46.9669 30.0261 47.1671 29.0339C47.3672 28.0418 47.4673 26.9365 47.4674 25.718ZM2.53264 24.282C2.53263 25.6049 2.79808 26.8059 3.32898 27.8851C3.85987 28.9643 4.59529 29.8912 5.53525 30.6658C6.47519 31.4404 7.59355 32.0409 8.89034 32.4674C10.1871 32.8938 11.6014 33.1071 13.1332 33.107C15.9878 33.1071 18.2941 32.611 20.0522 31.6188C21.8102 30.6266 22.9939 29.1819 23.6031 27.2846C22.4891 28.0505 21.3664 28.6118 20.235 28.9687C19.1035 29.3255 17.9808 29.5039 16.8668 29.5039C15.8921 29.5039 14.9173 29.356 13.9426 29.0601C12.9678 28.7642 12.0278 28.3551 11.1227 27.8329C10.2176 27.3107 9.3603 26.6928 8.55091 25.9791C7.74151 25.2655 7.01479 24.4909 6.37076 23.6554C5.72671 22.8199 5.18276 21.9365 4.7389 21.0052C4.29503 20.074 3.97737 19.1384 3.7859 18.1984C3.35073 19.0514 3.03307 19.9783 2.8329 20.9791C2.63272 21.98 2.53263 23.081 2.53264 24.282ZM25.718 2.53264C24.3951 2.53267 23.1941 2.79812 22.1149 3.32898C21.0357 3.85991 20.1088 4.59533 19.3342 5.53525C18.5596 6.47523 17.9591 7.59359 17.5326 8.89034C17.1062 10.1871 16.8929 11.6014 16.893 13.1332C16.8929 15.9878 17.389 18.2942 18.3812 20.0522C19.3733 21.8103 20.8181 22.9939 22.7154 23.6031C21.9495 22.4891 21.3925 21.3664 21.0444 20.235C20.6962 19.1036 20.5222 17.9809 20.5222 16.8668C20.5222 15.3873 20.8442 13.9295 21.4883 12.4935C22.1323 11.0575 22.9852 9.73893 24.047 8.53786C25.1088 7.33685 26.3142 6.31422 27.6632 5.46997C29.0122 4.6258 30.3916 4.06444 31.8016 3.7859C30.9486 3.35078 30.0261 3.03311 29.0339 2.8329C28.0417 2.63276 26.9364 2.53267 25.718 2.53264ZM9.58225 8.61619C8.78154 9.43432 8.18537 10.3308 7.79373 11.3055C7.40208 12.2803 7.20626 13.2985 7.20627 14.3603C7.20626 15.7006 7.51522 17.0627 8.13316 18.4465C8.75108 19.8303 9.66056 21.1227 10.8616 22.3238C12.2541 23.7337 13.6379 24.7824 15.0131 25.47C16.3881 26.1575 17.7284 26.5013 19.0339 26.5013C20.2002 26.5013 21.3316 26.2141 22.4282 25.6397C20.8094 25.3264 19.3864 24.7911 18.1593 24.0339C16.9321 23.2768 15.9051 22.3542 15.0783 21.2663C14.2515 20.1784 13.6336 18.9426 13.2245 17.5587C12.8155 16.175 12.611 14.6998 12.611 13.1332C12.611 11.5492 12.8024 10.0958 13.1854 8.77285C13.5683 7.44999 14.1253 6.25765 14.8564 5.19582C13.9338 5.49177 13.0461 5.91822 12.1932 6.4752C11.3403 7.03223 10.47 7.7459 9.58225 8.61619ZM41.3838 9.58225C40.5657 8.78158 39.6692 8.18541 38.6945 7.79373C37.7197 7.40212 36.7101 7.2063 35.6658 7.20627C34.3081 7.2063 32.9373 7.51526 31.5535 8.13316C30.1697 8.75112 28.8773 9.6606 27.6762 10.8616C26.2837 12.2542 25.2437 13.6336 24.5561 15C23.8686 16.3664 23.5248 17.7024 23.5248 19.0078C23.5248 20.1915 23.812 21.3316 24.3864 22.4282C24.6997 20.8094 25.2306 19.3864 25.9791 18.1593C26.7276 16.9321 27.6501 15.9052 28.7467 15.0783C29.8433 14.2515 31.0792 13.6336 32.4543 13.2245C33.8294 12.8155 35.3002 12.611 36.8668 12.611C38.4508 12.611 39.9086 12.8025 41.2402 13.1854C42.5718 13.5683 43.7685 14.1254 44.8303 14.8564C44.5343 13.9339 44.1079 13.0462 43.5509 12.1932C42.9939 11.3403 42.2715 10.47 41.3838 9.58225ZM40.4178 41.3838C41.2358 40.5657 41.8363 39.6693 42.2193 38.6945C42.6022 37.7198 42.7937 36.7102 42.7937 35.6658C42.7937 34.3081 42.4847 32.9417 41.8668 31.5666C41.2489 30.1915 40.3394 28.8947 39.1384 27.6762C37.7632 26.2837 36.3968 25.2437 35.0392 24.5561C33.6814 23.8686 32.3498 23.5248 31.0444 23.5248C29.8433 23.5248 28.6945 23.812 27.5979 24.3864C29.2167 24.6998 30.6353 25.2306 31.8538 25.9791C33.0722 26.7276 34.0948 27.6501 34.9217 28.7467C35.7484 29.8434 36.3664 31.0792 36.7755 32.4543C37.1845 33.8294 37.389 35.3003 37.389 36.8668C37.389 38.4508 37.2019 39.9043 36.8277 41.2272C36.4534 42.55 35.9007 43.7424 35.1697 44.8042C36.0748 44.5083 36.9538 44.0862 37.8068 43.5379C38.6597 42.9896 39.53 42.2715 40.4178 41.3838ZM8.61619 40.4178C9.43428 41.2359 10.3307 41.8364 11.3055 42.2193C12.2802 42.6023 13.2985 42.7937 14.3603 42.7937C15.7006 42.7937 17.0583 42.4848 18.4334 41.8668C19.8085 41.2489 21.1053 40.3394 22.3238 39.1384C23.7337 37.7459 24.7824 36.3708 25.47 35.0131C26.1575 33.6554 26.5013 32.3238 26.5013 31.0183C26.5013 29.8346 26.2141 28.6945 25.6397 27.5979C25.3263 29.2167 24.7911 30.6353 24.0339 31.8538C23.2767 33.0722 22.3542 34.0949 21.2663 34.9217C20.1784 35.7485 18.9425 36.3664 17.5587 36.7755C16.1749 37.1845 14.6997 37.389 13.1332 37.389C11.5492 37.389 10.0957 37.2019 8.77285 36.8277C7.44995 36.4534 6.25761 35.9008 5.19582 35.1697C5.75282 36.9278 6.89294 38.6771 8.61619 40.4178ZM7.8329 6.84073C9.17318 5.48306 10.6136 4.47784 12.154 3.82506C13.6945 3.17236 15.3351 2.81988 17.0757 2.76762C18.1723 1.87993 19.4473 1.19673 20.9008 0.718016C22.3542 0.239377 23.9599 3.88672e-05 25.718 0C29.443 3.88672e-05 32.55 1.21849 35.0392 3.65535C36.4839 3.79464 37.8894 4.21674 39.2559 4.92167C40.6222 5.62667 41.9234 6.59707 43.1593 7.8329C44.5169 9.19063 45.5265 10.6354 46.188 12.1671C46.8494 13.6989 47.1975 15.3351 47.2324 17.0757C48.1375 18.1723 48.825 19.4474 49.295 20.9008C49.765 22.3542 49.9999 23.96 50 25.718C49.9999 27.5979 49.6953 29.3081 49.0862 30.8486C48.4769 32.389 47.5718 33.7859 46.3708 35.0392C46.2315 36.4839 45.8094 37.8851 45.1044 39.2428C44.3994 40.6005 43.4203 41.906 42.1671 43.1593C40.8268 44.517 39.3951 45.5222 37.8721 46.1749C36.349 46.8277 34.7084 47.1801 32.9504 47.2324C31.8363 48.1201 30.5526 48.8033 29.0992 49.282C27.6458 49.7607 26.04 50 24.282 50C22.3847 50 20.6701 49.691 19.1384 49.0731C17.6066 48.4552 16.2141 47.5457 14.9608 46.3446C13.5335 46.2054 12.1366 45.7876 10.7702 45.0914C9.40382 44.3951 8.09399 43.4204 6.84073 42.1671C5.48302 40.8268 4.4778 39.3908 3.82506 37.859C3.17232 36.3272 2.81984 34.691 2.76762 32.9504C1.87989 31.8364 1.19669 30.5527 0.718016 29.0992C0.239337 27.6458 -1.7578e-06 26.04 0 24.282C-1.7578e-06 22.4021 0.308963 20.6919 0.926893 19.1514C1.54482 17.611 2.4543 16.2141 3.65535 14.9608C3.7946 13.5335 4.21235 12.1367 4.90862 10.7702C5.60487 9.40386 6.57963 8.09403 7.8329 6.84073Z" fill="#FFC02E"/>
</svg>
